<?xml version="1.0" encoding="utf-8"?>
<!-- Generator: Adobe Illustrator 19.1.0, SVG Export Plug-In . SVG Version: 6.00 Build 0)  -->
<svg version="1.1" id="Layer_1" xmlns="http://www.w3.org/2000/svg" xmlns:xlink="http://www.w3.org/1999/xlink" x="0px" y="0px"
	 viewBox="0 0 288 288" enable-background="new 0 0 288 288" xml:space="preserve">
<path id="XMLID_1807_" d="M154.6,213.1l0.8,3.9c-3.8,0.6-7.6,0.9-11.4,0.9s-7.7-0.3-11.4-0.9l0.8-3.9
	C140.4,214.2,147.6,214.2,154.6,213.1z M187.2,110.4l-0.5,0.5c3,3.9,5.4,8.1,7.3,12.6l1.3-0.4l2.5-0.8c-2-5.1-4.7-9.8-8.1-14.1
	L187.2,110.4z M135.9,201.3c2.7,0.4,5.4,0.6,8.1,0.6s5.4-0.2,8.1-0.6l-0.8-3.9c-4.8,0.7-9.7,0.7-14.6,0L135.9,201.3z M169.6,96.4
	c4.3,2.3,8.2,5.2,11.8,8.6l1-0.9l2-1.8c-3.9-3.8-8.3-7-13.1-9.5L169.6,96.4z M179.5,199.6l-2.4-3.2c-5.1,3.2-10.6,5.7-16.3,7.3
	l0.8,3.9C167.9,205.8,173.9,203.1,179.5,199.6z M201.1,154l-4-0.4c-0.9,4.8-2.4,9.4-4.5,13.8l3.5,2
	C198.5,164.5,200.2,159.3,201.1,154z M163.9,89.5c-5.1-1.9-10.4-3-15.9-3.4v4c4.9,0.4,9.6,1.4,14.2,3L163.9,89.5z M181.8,202.8
	c-6,3.9-12.5,6.8-19.4,8.6l0.2,0.9l0.6,3c7.4-2,14.4-5.1,20.9-9.3L181.8,202.8z M128.9,195.8c-4.7-1.4-9.1-3.3-13.3-5.9l-2.4,3.2
	c4.6,2.9,9.6,5.1,14.8,6.6L128.9,195.8z M172.4,189.8c-4.2,2.6-8.6,4.6-13.3,5.9l0.8,3.9c5.2-1.5,10.2-3.7,14.8-6.6L172.4,189.8z
	 M95.1,167.5l0.3-0.2c-2.1-4.4-3.6-9-4.5-13.8l-4,0.4c0.9,5.4,2.6,10.5,5,15.4L95.1,167.5z M109.1,185.1c-3.7-3.2-7-6.8-9.7-10.8
	l-3.1,1.8l-0.3,0.2c3,4.5,6.7,8.6,10.9,12.1L109.1,185.1z M127.2,203.6c-5.8-1.6-11.3-4.1-16.3-7.3l-2.4,3.2
	c5.6,3.6,11.5,6.2,17.9,8L127.2,203.6z M140,86.1c-5.4,0.4-10.8,1.5-15.9,3.4l0.6,1.3l1.1,2.4c4.6-1.7,9.4-2.7,14.2-3V86.1z
	 M192.1,176.3l-3.5-2c-2.8,4-6,7.7-9.7,10.8l2.4,3.2C185.4,184.9,189,180.8,192.1,176.3z M201.9,146c0-0.7,0.1-1.4,0.1-2.1
	c0-4.8-0.6-9.5-1.7-14.1l-3.8,1.2c1,4.2,1.5,8.5,1.5,12.8c0,0.5,0,1.1,0,1.7L201.9,146z M135.1,205.3l-0.8,3.9
	c3.2,0.5,6.5,0.7,9.8,0.7c3.3,0,6.5-0.3,9.8-0.7l-0.8-3.9C147,206.1,141,206.1,135.1,205.3z M173.5,87.5l-0.7,1.6
	c5.3,2.8,10.2,6.3,14.5,10.5l2.7-2.4l0.3-0.3c-4.7-4.6-10-8.5-15.8-11.5L173.5,87.5z M195.6,102.8l-0.8,0.7l-2.2,2
	c3.7,4.7,6.7,9.9,9,15.5l3.8-1.2C203,113.7,199.7,108,195.6,102.8z M169.8,76.1l0.6-1.3c-7.2-2.8-14.7-4.4-22.4-4.8v4
	c7.1,0.4,14.1,1.9,20.8,4.4L169.8,76.1z M179,55.4l1.1-2.5c-10.3-4.1-21.1-6.4-32.2-6.8v4c10.6,0.4,20.8,2.6,30.6,6.5L179,55.4z
	 M183.4,45.5C172.1,41,160.2,38.5,148,38v4c11.7,0.4,23,2.8,33.8,7.2L183.4,45.5z M207.5,92.1l-2.9,2.6l-0.1,0.1
	c5.2,6.4,9.3,13.6,12.3,21.3l3.8-1.2C217.5,106.6,213.1,99,207.5,92.1z M197.9,224.9l-1.9-2.6c-8.8,5.8-18.3,10.1-28.5,12.7l0.4,1.8
	l0.4,2.1c10.7-2.7,20.8-7.2,30-13.4L197.9,224.9z M226,143.9c0-7.3-1-14.5-2.9-21.5l-3.8,1.2c1.8,6.6,2.7,13.4,2.7,20.3
	c0,1.4,0,2.8-0.1,4.2l4,0.4C225.9,147,226,145.4,226,143.9z M243.5,107.4c-4.2-11.5-10.3-22-18.1-31.4l-3,2.7
	c7.5,9,13.3,19,17.3,29.9L243.5,107.4z M229,156.9c-1.4,9.3-4.3,18.2-8.6,26.5l0.8,0.5l2.7,1.5c4.6-8.8,7.7-18.3,9.1-28.1L229,156.9
	z M57.7,198.4l-3.5,2c6.5,10.2,14.7,19.4,24.2,26.9l1-1.4l1.3-1.8C71.8,216.9,63.9,208.1,57.7,198.4z M244.9,158.6
	c-1.7,11.5-5.2,22.6-10.7,32.9l3.5,2c5.7-10.8,9.5-22.3,11.2-34.5L244.9,158.6z M199,180.3l-3.5-2c-3.3,5-7.3,9.5-12,13.3l2.4,3.2
	C191,190.7,195.4,185.8,199,180.3z M187.2,210.2l-0.6-0.9c-6.9,4.5-14.5,7.9-22.4,10l0.8,3.9c8.5-2.2,16.6-5.8,24-10.7L187.2,210.2z
	 M97.3,201.3l0.5-0.7l1.9-2.6c-5.5-4.5-10.3-9.8-14.2-15.8l-3.5,2C86.2,190.8,91.4,196.5,97.3,201.3z M201.6,97.5l-3,2.7
	c4.5,5.6,8,11.7,10.6,18.4l3.8-1.2C210.3,110.1,206.4,103.5,201.6,97.5z M85,173.4l3.5-2c-2.7-5.4-4.5-11.1-5.5-17l-4,0.4
	C80,161.3,82,167.5,85,173.4z M166.5,83.6l0.6-1.4c-6.2-2.3-12.6-3.7-19.1-4.1v4c6,0.4,11.9,1.6,17.5,3.7L166.5,83.6z M213.1,155.2
	c-1.1,7-3.3,13.8-6.6,20.2l0.7,0.4l2.8,1.6c3.5-6.9,5.9-14.2,7.1-21.8L213.1,155.2z M191.8,216.5l-0.5-0.7
	c-7.9,5.2-16.4,9-25.5,11.4l0.8,3.9c9.6-2.5,18.7-6.5,27-12L191.8,216.5z M78.6,186.3l-3.2,1.9l-0.2,0.1c4.8,7.4,10.7,14,17.5,19.5
	l0.6-0.9l1.7-2.4C88.6,199.4,83.1,193.3,78.6,186.3z M87.7,129.9c-1.1,4.6-1.7,9.3-1.7,14.1c0,0.7,0,1.4,0.1,2.1l4-0.4
	c0-0.6,0-1.1,0-1.7c0-4.3,0.5-8.6,1.5-12.8L87.7,129.9z M104.4,191.6c-4.6-3.8-8.6-8.3-12-13.3l-3.5,2c3.6,5.5,8,10.4,13.1,14.5
	L104.4,191.6z M209.1,154.8l-4-0.4c-1,5.9-2.9,11.6-5.5,17l3.5,2C206,167.5,208,161.3,209.1,154.8z M185.1,41.8l1.6-3.6
	c-12.3-5-25.3-7.7-38.7-8.2v4C160.8,34.5,173.2,37.1,185.1,41.8L185.1,41.8z M213.5,86.8l-1.1,1l-1.8,1.6c6,7.3,10.7,15.4,14,24.2
	l3.8-1.2C224.8,103,219.8,94.4,213.5,86.8z M140,66v-4c-8.8,0.4-17.4,2.3-25.7,5.5l1.6,3.7C123.7,68.2,131.7,66.4,140,66z
	 M233.8,149.4c0.1-1.8,0.2-3.6,0.2-5.4c0-8.1-1.1-16.2-3.2-24l-3.8,1.2c2,7.4,3.1,15,3.1,22.7c0,1.7-0.1,3.3-0.2,5L233.8,149.4z
	 M216.9,181.4c4.1-7.9,6.8-16.2,8.1-24.9l-4-0.4c-1.3,8.2-3.8,16-7.6,23.4l0.2,0.1L216.9,181.4z M235.9,109.9
	c-3.8-10.4-9.4-19.9-16.5-28.5l-1.6,1.4l-1.4,1.3c6.7,8.1,12,17.2,15.6,27L235.9,109.9z M93.8,93.4l0.9,0.8
	c5.1-5,10.8-9.2,17.2-12.5l-1.6-3.7c-6.9,3.5-13.1,8-18.5,13.5L93.8,93.4z M241.8,150.2c0.1-2.1,0.2-4.2,0.2-6.3
	c0-9-1.2-17.9-3.6-26.4l-3.8,1.2c2.3,8.2,3.4,16.6,3.4,25.2c0,1.9-0.1,3.9-0.2,5.8L241.8,150.2z M161.3,244.5
	c-11.4,1.9-23.2,1.9-34.6,0l-0.8,3.9c6,1,12,1.6,18.1,1.6s12.1-0.5,18.1-1.6l-0.4-1.7L161.3,244.5z M89.4,100.1l-0.5-0.5l-2.5-2.2
	c-4.9,6-8.7,12.6-11.5,19.8l3.8,1.2C81.4,111.9,84.9,105.7,89.4,100.1z M211.1,78.1l1.7-1.5l1.3-1.1c-7.8-8-16.7-14.4-26.6-19.4
	l-1.6,3.7C195.3,64.4,203.7,70.6,211.1,78.1z M108.7,74.4l-1.6-3.7c-7.9,4-15,9.1-21.2,15.4l3,2.7C94.6,83,101.3,78.1,108.7,74.4z
	 M195.4,207.8c6.9-5.5,12.8-12.1,17.5-19.5l-0.2-0.1l-3.2-1.9c-4.5,6.9-10,13.1-16.4,18.2l1.4,1.9L195.4,207.8z M237,157.7
	c-1.5,10.4-4.8,20.4-9.6,29.7l3.5,2c5.2-9.8,8.6-20.3,10.2-31.3L237,157.7z M197.7,211.1l1.3,1.8l1.1,1.4c7.7-6.2,14.5-13.7,19.8-22
	l-3.5-2C211.3,198.2,205,205.2,197.7,211.1z M95.6,217.4l-1.2,1.6c8.3,5.5,17.4,9.5,27,12l0.8-3.9l0-0.1
	c-9.1-2.4-17.6-6.2-25.5-11.4L95.6,217.4z M160.4,240.5l-0.4-1.8l-0.4-2.1c-10.3,1.7-20.9,1.7-31.2,0l-0.8,3.9
	c5.4,0.9,10.9,1.4,16.4,1.4C149.5,241.9,155,241.5,160.4,240.5z M169.1,242.8l0.4,2l0.4,1.9c11.8-3,22.9-7.9,33.1-14.7l-2.4-3.2
	C191,235.2,180.4,239.9,169.1,242.8z M182.6,67.1c8.4,4.2,15.9,9.7,22.6,16.4l2.1-1.9l0.9-0.8c-7-7.1-15-12.9-23.9-17.4L182.6,67.1z
	 M105.3,203.9l-1.5,2.1c6.5,4.2,13.5,7.3,20.9,9.3l0.8-3.9c-6.9-1.9-13.4-4.8-19.4-8.6L105.3,203.9z M130,228.9l-0.8,3.8
	c4.9,0.8,9.8,1.2,14.8,1.2s9.9-0.4,14.8-1.2l-0.8-3.9C148.7,230.3,139.3,230.3,130,228.9L130,228.9z M206,184.3L206,184.3l-3.5-2
	c-3.9,6-8.7,11.3-14.2,15.8l2.4,3.2C196.6,196.5,201.8,190.8,206,184.3z M99.1,108.9l-0.7-0.7c-3.4,4.3-6.1,9-8.1,14.1l3,1l0.9,0.3
	c1.8-4.5,4.3-8.7,7.3-12.6L99.1,108.9z M140,78.1c-6.6,0.4-13,1.8-19.1,4.1l1.6,3.7c5.6-2.1,11.5-3.3,17.5-3.7V78.1z M116.8,92.7
	c-4.8,2.6-9.2,5.7-13.1,9.5l0.3,0.3l2.7,2.4c3.5-3.4,7.5-6.2,11.8-8.6l-1.1-2.4L116.8,92.7z M210,143.9c0-5.6-0.7-11.1-2.1-16.5
	l-3.8,1.2c1.3,5,1.9,10.1,1.9,15.3c0,0.8,0,1.7-0.1,2.5l4,0.4C210,145.9,210,144.9,210,143.9z M177.4,78.8l-1.3,2.9
	c6.4,3.3,12.1,7.5,17.2,12.5l3-2.7c-5.5-5.4-11.7-10-18.5-13.5L177.4,78.8z M217.9,147.7c0.1-1.3,0.1-2.5,0.1-3.8
	c0-6.4-0.8-12.8-2.5-19l-3.8,1.2c1.5,5.8,2.3,11.8,2.3,17.8c0,1.1,0,2.2-0.1,3.3L217.9,147.7z M131.7,220.9l-0.8,3.9
	c4.3,0.7,8.7,1.1,13.1,1.1s8.8-0.4,13.1-1.1l-0.8-3.9C148.2,222.2,139.8,222.2,131.7,220.9z M82.6,119.8l3.8,1.2
	c2.2-5.6,5.2-10.8,9-15.5l-3-2.7C88.3,108,85,113.7,82.6,119.8z M71.6,190.3l-3.5,2c5.3,8.3,12.1,15.8,19.8,22l0.1-0.1l2.3-3.1
	C83,205.2,76.7,198.2,71.6,190.3z M179.3,74.4c7.4,3.7,14,8.6,19.9,14.4l0.1-0.1l2.8-2.6c-6.2-6.3-13.3-11.4-21.2-15.4L179.3,74.4z
	 M100.7,210.3l-1.6,2.2c7.4,4.9,15.4,8.4,24,10.7l0.8-3.9c-8-2.1-15.5-5.5-22.4-10L100.7,210.3z M64.7,194.4l-3.5,2
	c5.9,9.3,13.4,17.6,22,24.4l2.4-3.2C77.4,211,70.3,203.1,64.7,194.4z M176.9,60.1c-9.2-3.6-18.9-5.7-28.9-6.1v4
	c9.4,0.4,18.6,2.4,27.3,5.8L176.9,60.1z M173.7,67.5c-8.2-3.2-16.8-5-25.7-5.5v4c8.3,0.4,16.3,2.1,24,5.1L173.7,67.5z M140,70
	c-7.7,0.4-15.2,2-22.4,4.8l1.6,3.7c6.7-2.5,13.6-4,20.8-4.4V70z M100.7,99.6c4.3-4.2,9.1-7.7,14.5-10.5l-1.6-3.7
	c-5.8,3-11.1,6.9-15.8,11.5L100.7,99.6z M191.6,128.5c-2.2-6.7-5.7-12.8-10.4-18l-3,2.7c4.3,4.8,7.6,10.4,9.6,16.6
	c1.5,4.6,2.2,9.4,2.2,14.2c0,1.6-0.1,3.2-0.3,4.8v0c-0.7,6.4-2.7,12.6-5.9,18.2c-3.2,5.6-7.6,10.4-12.8,14.2
	c-5.3,3.8-11.1,6.4-17.5,7.8c-6.3,1.3-12.8,1.3-19.1,0c-6.3-1.3-12.2-4-17.5-7.8c-5.2-3.8-9.6-8.6-12.8-14.2
	c-3.3-5.6-5.2-11.7-5.9-18.2c-0.2-1.6-0.3-3.2-0.3-4.8c0-4.8,0.8-9.6,2.2-14.2v0c2-6.2,5.2-11.7,9.6-16.6l0,0
	c4.3-4.8,9.5-8.6,15.5-11.2c5.9-2.6,12.2-4,18.7-4s12.8,1.3,18.7,4c5.9,2.6,11.1,6.4,15.5,11.2l3-2.7c-4.7-5.2-10.4-9.4-16.8-12.2
	c-6.4-2.9-13.3-4.3-20.3-4.3s-13.9,1.5-20.3,4.3c-6.4,2.9-12.1,7-16.8,12.2c-4.7,5.2-8.2,11.3-10.4,18l0,0c-1.6,5-2.4,10.2-2.4,15.4
	c0,1.7,0.1,3.5,0.3,5.2c0.7,7,2.9,13.7,6.4,19.8c3.5,6.1,8.2,11.3,13.9,15.4c5.7,4.2,12.1,7,19,8.5c3.4,0.7,6.9,1.1,10.4,1.1
	c3.5,0,7-0.4,10.4-1.1c6.9-1.5,13.3-4.3,19-8.5c5.7-4.1,10.4-9.3,13.9-15.4c3.5-6.1,5.7-12.8,6.4-19.8c0.2-1.7,0.3-3.5,0.3-5.2
	C194,138.7,193.2,133.5,191.6,128.5z"/>
<path id="XMLID_1655_" fill="#CCCCCC" d="M124.3,50l1.7,7.8c0,0.1-0.1,0.3-0.2,0.3c0,0,0,0-0.1,0c-0.1,0-0.2-0.1-0.2-0.2l-1.7-7.8
	l-1.7-7.8l-1.7-7.8l-1.7-7.8c0-0.1,0.1-0.3,0.2-0.3c0.1,0,0.3,0.1,0.3,0.2l1.7,7.8l1.7,7.8L124.3,50z M87.8,66.1l-4.7-6.5l-4.7-6.5
	l-4.7-6.5c-0.1-0.1-0.2-0.1-0.3-0.1c-0.1,0.1-0.1,0.2-0.1,0.3l4.7,6.5l4.7,6.5l4.7,6.5l4.7,6.5c0,0.1,0.1,0.1,0.2,0.1
	c0.1,0,0.1,0,0.1,0c0.1-0.1,0.1-0.2,0.1-0.3L87.8,66.1z M46.9,88.1l6.9,4l6.9,4l6.9,4l6.9,4c0,0,0.1,0,0.1,0c0.1,0,0.2,0,0.2-0.1
	c0.1-0.1,0-0.3-0.1-0.3l-6.9-4l-6.9-4l-6.9-4l-6.9-4l-6.9-4c-0.1-0.1-0.3,0-0.3,0.1c-0.1,0.1,0,0.3,0.1,0.3L46.9,88.1z M80.4,137
	l-8-0.8l-8-0.8l-8-0.8l-8-0.8l-8-0.8l-8-0.8l-8-0.8c-0.1,0-0.3,0.1-0.3,0.2c0,0.1,0.1,0.3,0.2,0.3l8,0.8l8,0.8l8,0.8l8,0.8l8,0.8
	l8,0.8l8,0.8c0,0,0,0,0,0c0.1,0,0.2-0.1,0.2-0.2C80.6,137.1,80.5,137,80.4,137z M75.4,165.9l-7.6,2.5l-7.6,2.5l-7.6,2.5l-7.6,2.5
	l-7.6,2.5l-7.6,2.5c-0.1,0-0.2,0.2-0.2,0.3c0,0.1,0.1,0.2,0.2,0.2c0,0,0.1,0,0.1,0l7.6-2.5l7.6-2.5l7.6-2.5l7.6-2.5l7.6-2.5l7.6-2.5
	c0.1,0,0.2-0.2,0.2-0.3C75.7,166,75.6,165.9,75.4,165.9z M60.6,218.7l-5.9,5.4c-0.1,0.1-0.1,0.2,0,0.4c0,0.1,0.1,0.1,0.2,0.1
	c0.1,0,0.1,0,0.2-0.1l5.9-5.4c0.1-0.1,0.1-0.2,0-0.4S60.7,218.6,60.6,218.7z M104.7,231.5l-3.3,7.3l-3.3,7.3l-3.3,7.3
	c-0.1,0.1,0,0.3,0.1,0.3c0,0,0.1,0,0.1,0c0.1,0,0.2-0.1,0.2-0.1l3.3-7.3l3.3-7.3l3.3-7.3c0.1-0.1,0-0.3-0.1-0.3
	C104.9,231.3,104.8,231.4,104.7,231.5z M144,255.7c-0.1,0-0.2,0.1-0.2,0.2v8c0,0.1,0.1,0.2,0.2,0.2s0.2-0.1,0.2-0.2v-8
	C144.2,255.8,144.1,255.7,144,255.7z M189.8,246.2c-0.1-0.1-0.2-0.2-0.3-0.1c-0.1,0.1-0.2,0.2-0.1,0.3l3.3,7.3
	c0,0.1,0.1,0.1,0.2,0.1c0,0,0.1,0,0.1,0c0.1-0.1,0.2-0.2,0.1-0.3L189.8,246.2z M227.4,218.7l-5.9-5.4c0,0,0,0,0,0l-5.9-5.4
	c-0.1-0.1-0.3-0.1-0.4,0c-0.1,0.1-0.1,0.3,0,0.4l5.9,5.4l5.9,5.4l5.9,5.4c0,0,0.1,0.1,0.2,0.1c0.1,0,0.1,0,0.2-0.1
	c0.1-0.1,0.1-0.3,0-0.4L227.4,218.7z M258.2,180.8l-7.6-2.5c-0.1,0-0.3,0-0.3,0.2c0,0.1,0,0.3,0.2,0.3l7.6,2.5c0,0,0.1,0,0.1,0
	c0.1,0,0.2-0.1,0.2-0.2C258.4,181,258.3,180.8,258.2,180.8z M263.3,131.1l-8,0.8l0,0l0,0l-8,0.8c-0.1,0-0.2,0.1-0.2,0.3
	c0,0.1,0.1,0.2,0.2,0.2c0,0,0,0,0,0l8-0.8c0,0,0,0,0,0l8-0.8c0.1,0,0.2-0.1,0.2-0.3C263.6,131.2,263.5,131.1,263.3,131.1z
	 M248.2,83.8c-0.1-0.1-0.2-0.2-0.3-0.1l-6.9,4c-0.1,0.1-0.2,0.2-0.1,0.3c0,0.1,0.1,0.1,0.2,0.1c0,0,0.1,0,0.1,0l6.9-4
	C248.2,84.1,248.2,83.9,248.2,83.8z M214.3,46.7l-4.7,6.5l-4.7,6.5c-0.1,0.1-0.1,0.3,0.1,0.3c0,0,0.1,0,0.1,0c0.1,0,0.2,0,0.2-0.1
	l4.7-6.5l4.7-6.5c0.1-0.1,0.1-0.3-0.1-0.3C214.6,46.6,214.4,46.6,214.3,46.7z"/>
<g id="XMLID_101_">
	
		<text id="XMLID_1456_" transform="matrix(-0.9782 0.2079 -0.2079 -0.9782 120.2795 13.8027)" fill="#CCCCCC" font-family="'Dosis-Light'" font-size="7.7191px">Git</text>
	
		<text id="XMLID_1407_" transform="matrix(-0.809 0.5878 -0.5878 -0.809 79.0178 27.7835)" fill="#CCCCCC" font-family="'Dosis-Light'" font-size="7.7191px">WordPress</text>
	
		<text id="XMLID_1350_" transform="matrix(-0.5 0.866 -0.866 -0.5 32.5941 72.5071)" fill="#CCCCCC" font-family="'Dosis-Light'" font-size="7.7191px">PHP</text>
	
		<text id="XMLID_1155_" transform="matrix(-0.1045 0.9945 -0.9945 -0.1045 13.1087 123.4162)" fill="#CCCCCC" font-family="'Dosis-Light'" font-size="7.719px">Ionic</text>
	
		<text id="XMLID_1085_" transform="matrix(0.309 0.9511 -0.9511 0.309 13.6145 170.6003)" fill="#CCCCCC" font-family="'Dosis-Light'" font-size="7.7191px">AngularJS</text>
	
		<text id="XMLID_1065_" transform="matrix(0.6691 0.7431 -0.7431 0.6691 39.4819 225.5199)" fill="#CCCCCC" font-family="'Dosis-Light'" font-size="7.719px">jQuery</text>
	
		<text id="XMLID_110_" transform="matrix(0.9135 0.4067 -0.4067 0.9135 76.3244 258.6814)" fill="#CCCCCC" font-family="'Dosis-Light'" font-size="7.7191px">JavaScript</text>
	
		<text id="XMLID_109_" transform="matrix(1 0 0 1 128.7407 276.2314)" fill="#CCCCCC" font-family="'Dosis-Light'" font-size="7.7191px">CSS/SASS</text>
	
		<text id="XMLID_108_" transform="matrix(0.9135 -0.4067 0.4067 0.9135 190.2782 268.1456)" fill="#CCCCCC" font-family="'Dosis-Light'" font-size="7.7191px">HTML</text>
	
		<text id="XMLID_107_" transform="matrix(0.6691 -0.7431 0.7431 0.6691 236.3885 238.9035)" fill="#CCCCCC" font-family="'Dosis-Light'" font-size="7.719px">Pixate</text>
	
		<text id="XMLID_106_" transform="matrix(0.309 -0.9511 0.9511 0.309 264.2389 202.1393)" fill="#CCCCCC" font-family="'Dosis-Light'" font-size="7.7191px">After Effects</text>
	
		<text id="XMLID_105_" transform="matrix(-0.1045 -0.9945 0.9945 -0.1045 276.83 142.3596)" fill="#CCCCCC" font-family="'Dosis-Light'" font-size="7.719px">InDesign</text>
	
		<text id="XMLID_104_" transform="matrix(-0.5 -0.866 0.866 -0.5 266.3324 91.3095)" fill="#CCCCCC" font-family="'Dosis-Light'" font-size="7.7191px">Photoshop</text>
	
		<text id="XMLID_103_" transform="matrix(-0.809 -0.5878 0.5878 -0.809 229.7927 42.8379)" fill="#CCCCCC" font-family="'Dosis-Light'" font-size="7.7191px">Sketch</text>
	
		<text id="XMLID_102_" transform="matrix(-0.9782 -0.2079 0.2079 -0.9782 185.001 17.4421)" fill="#CCCCCC" font-family="'Dosis-Light'" font-size="7.7191px">Illustrator</text>
</g>
</svg>
