<?xml version="1.0" encoding="utf-8"?>
<!-- Generator: Adobe Illustrator 19.1.0, SVG Export Plug-In . SVG Version: 6.00 Build 0)  -->
<svg version="1.1" id="Layer_1" xmlns="http://www.w3.org/2000/svg" xmlns:xlink="http://www.w3.org/1999/xlink" x="0px" y="0px"
	 viewBox="0 0 288 288" enable-background="new 0 0 288 288" xml:space="preserve">
<path id="XMLID_1807_" d="M154.6,213.1l0.8,3.9c-3.8,0.6-7.6,0.9-11.4,0.9s-7.7-0.3-11.4-0.9l0.8-3.9
	C140.4,214.2,147.6,214.2,154.6,213.1z M187.2,110.4l-0.5,0.5c3,3.9,5.4,8.1,7.3,12.6l1.3-0.4l2.5-0.8c-2-5.1-4.7-9.8-8.1-14.1
	L187.2,110.4z M135.9,201.3c2.7,0.4,5.4,0.6,8.1,0.6s5.4-0.2,8.1-0.6l-0.8-3.9c-4.8,0.7-9.7,0.7-14.6,0L135.9,201.3z M169.6,96.4
	c4.3,2.3,8.2,5.2,11.8,8.6l1-0.9l2-1.8c-3.9-3.8-8.3-7-13.1-9.5L169.6,96.4z M179.5,199.6l-2.4-3.2c-5.1,3.2-10.6,5.7-16.3,7.3
	l0.8,3.9C167.9,205.8,173.9,203.1,179.5,199.6z M201.1,154l-4-0.4c-0.9,4.8-2.4,9.4-4.5,13.8l3.5,2
	C198.5,164.5,200.2,159.3,201.1,154z M163.9,89.5c-5.1-1.9-10.4-3-15.9-3.4v4c4.9,0.4,9.6,1.4,14.2,3L163.9,89.5z M181.8,202.8
	c-6,3.9-12.5,6.8-19.4,8.6l0.2,0.9l0.6,3c7.4-2,14.4-5.1,20.9-9.3L181.8,202.8z M128.9,195.8c-4.7-1.4-9.1-3.3-13.3-5.9l-2.4,3.2
	c4.6,2.9,9.6,5.1,14.8,6.6L128.9,195.8z M172.4,189.8c-4.2,2.6-8.6,4.6-13.3,5.9l0.8,3.9c5.2-1.5,10.2-3.7,14.8-6.6L172.4,189.8z
	 M95.1,167.5l0.3-0.2c-2.1-4.4-3.6-9-4.5-13.8l-4,0.4c0.9,5.4,2.6,10.5,5,15.4L95.1,167.5z M109.1,185.1c-3.7-3.2-7-6.8-9.7-10.8
	l-3.1,1.8l-0.3,0.2c3,4.5,6.7,8.6,10.9,12.1L109.1,185.1z M127.2,203.6c-5.8-1.6-11.3-4.1-16.3-7.3l-2.4,3.2
	c5.6,3.6,11.5,6.2,17.9,8L127.2,203.6z M140,86.1c-5.4,0.4-10.8,1.5-15.9,3.4l0.6,1.3l1.1,2.4c4.6-1.7,9.4-2.7,14.2-3V86.1z
	 M192.1,176.3l-3.5-2c-2.8,4-6,7.7-9.7,10.8l2.4,3.2C185.4,184.9,189,180.8,192.1,176.3z M201.9,146c0-0.7,0.1-1.4,0.1-2.1
	c0-4.8-0.6-9.5-1.7-14.1l-3.8,1.2c1,4.2,1.5,8.5,1.5,12.8c0,0.5,0,1.1,0,1.7L201.9,146z M135.1,205.3l-0.8,3.9
	c3.2,0.5,6.5,0.7,9.8,0.7c3.3,0,6.5-0.3,9.8-0.7l-0.8-3.9C147,206.1,141,206.1,135.1,205.3z M173.5,87.5l-0.7,1.6
	c5.3,2.8,10.2,6.3,14.5,10.5l2.7-2.4l0.3-0.3c-4.7-4.6-10-8.5-15.8-11.5L173.5,87.5z M195.6,102.8l-0.8,0.7l-2.2,2
	c3.7,4.7,6.7,9.9,9,15.5l3.8-1.2C203,113.7,199.7,108,195.6,102.8z M169.8,76.1l0.6-1.3c-7.2-2.8-14.7-4.4-22.4-4.8v4
	c7.1,0.4,14.1,1.9,20.8,4.4L169.8,76.1z M179,55.4l1.1-2.5c-10.3-4.1-21.1-6.4-32.2-6.8v4c10.6,0.4,20.8,2.6,30.6,6.5L179,55.4z
	 M183.4,45.5C172.1,41,160.2,38.5,148,38v4c11.7,0.4,23,2.8,33.8,7.2L183.4,45.5z M207.5,92.1l-2.9,2.6l-0.1,0.1
	c5.2,6.4,9.3,13.6,12.3,21.3l3.8-1.2C217.5,106.6,213.1,99,207.5,92.1z M197.9,224.9l-1.9-2.6c-8.8,5.8-18.3,10.1-28.5,12.7l0.4,1.8
	l0.4,2.1c10.7-2.7,20.8-7.2,30-13.4L197.9,224.9z M226,143.9c0-7.3-1-14.5-2.9-21.5l-3.8,1.2c1.8,6.6,2.7,13.4,2.7,20.3
	c0,1.4,0,2.8-0.1,4.2l4,0.4C225.9,147,226,145.4,226,143.9z M243.5,107.4c-4.2-11.5-10.3-22-18.1-31.4l-3,2.7
	c7.5,9,13.3,19,17.3,29.9L243.5,107.4z M229,156.9c-1.4,9.3-4.3,18.2-8.6,26.5l0.8,0.5l2.7,1.5c4.6-8.8,7.7-18.3,9.1-28.1L229,156.9
	z M57.7,198.4l-3.5,2c6.5,10.2,14.7,19.4,24.2,26.9l1-1.4l1.3-1.8C71.8,216.9,63.9,208.1,57.7,198.4z M244.9,158.6
	c-1.7,11.5-5.2,22.6-10.7,32.9l3.5,2c5.7-10.8,9.5-22.3,11.2-34.5L244.9,158.6z M199,180.3l-3.5-2c-3.3,5-7.3,9.5-12,13.3l2.4,3.2
	C191,190.7,195.4,185.8,199,180.3z M187.2,210.2l-0.6-0.9c-6.9,4.5-14.5,7.9-22.4,10l0.8,3.9c8.5-2.2,16.6-5.8,24-10.7L187.2,210.2z
	 M97.3,201.3l0.5-0.7l1.9-2.6c-5.5-4.5-10.3-9.8-14.2-15.8l-3.5,2C86.2,190.8,91.4,196.5,97.3,201.3z M201.6,97.5l-3,2.7
	c4.5,5.6,8,11.7,10.6,18.4l3.8-1.2C210.3,110.1,206.4,103.5,201.6,97.5z M85,173.4l3.5-2c-2.7-5.4-4.5-11.1-5.5-17l-4,0.4
	C80,161.3,82,167.5,85,173.4z M166.5,83.6l0.6-1.4c-6.2-2.3-12.6-3.7-19.1-4.1v4c6,0.4,11.9,1.6,17.5,3.7L166.5,83.6z M213.1,155.2
	c-1.1,7-3.3,13.8-6.6,20.2l0.7,0.4l2.8,1.6c3.5-6.9,5.9-14.2,7.1-21.8L213.1,155.2z M191.8,216.5l-0.5-0.7
	c-7.9,5.2-16.4,9-25.5,11.4l0.8,3.9c9.6-2.5,18.7-6.5,27-12L191.8,216.5z M78.6,186.3l-3.2,1.9l-0.2,0.1c4.8,7.4,10.7,14,17.5,19.5
	l0.6-0.9l1.7-2.4C88.6,199.4,83.1,193.3,78.6,186.3z M87.7,129.9c-1.1,4.6-1.7,9.3-1.7,14.1c0,0.7,0,1.4,0.1,2.1l4-0.4
	c0-0.6,0-1.1,0-1.7c0-4.3,0.5-8.6,1.5-12.8L87.7,129.9z M104.4,191.6c-4.6-3.8-8.6-8.3-12-13.3l-3.5,2c3.6,5.5,8,10.4,13.1,14.5
	L104.4,191.6z M209.1,154.8l-4-0.4c-1,5.9-2.9,11.6-5.5,17l3.5,2C206,167.5,208,161.3,209.1,154.8z M185.1,41.8l1.6-3.6
	c-12.3-5-25.3-7.7-38.7-8.2v4C160.8,34.5,173.2,37.1,185.1,41.8L185.1,41.8z M213.5,86.8l-1.1,1l-1.8,1.6c6,7.3,10.7,15.4,14,24.2
	l3.8-1.2C224.8,103,219.8,94.4,213.5,86.8z M140,66v-4c-8.8,0.4-17.4,2.3-25.7,5.5l1.6,3.7C123.7,68.2,131.7,66.4,140,66z
	 M233.8,149.4c0.1-1.8,0.2-3.6,0.2-5.4c0-8.1-1.1-16.2-3.2-24l-3.8,1.2c2,7.4,3.1,15,3.1,22.7c0,1.7-0.1,3.3-0.2,5L233.8,149.4z
	 M216.9,181.4c4.1-7.9,6.8-16.2,8.1-24.9l-4-0.4c-1.3,8.2-3.8,16-7.6,23.4l0.2,0.1L216.9,181.4z M235.9,109.9
	c-3.8-10.4-9.4-19.9-16.5-28.5l-1.6,1.4l-1.4,1.3c6.7,8.1,12,17.2,15.6,27L235.9,109.9z M93.8,93.4l0.9,0.8
	c5.1-5,10.8-9.2,17.2-12.5l-1.6-3.7c-6.9,3.5-13.1,8-18.5,13.5L93.8,93.4z M241.8,150.2c0.1-2.1,0.2-4.2,0.2-6.3
	c0-9-1.2-17.9-3.6-26.4l-3.8,1.2c2.3,8.2,3.4,16.6,3.4,25.2c0,1.9-0.1,3.9-0.2,5.8L241.8,150.2z M161.3,244.5
	c-11.4,1.9-23.2,1.9-34.6,0l-0.8,3.9c6,1,12,1.6,18.1,1.6s12.1-0.5,18.1-1.6l-0.4-1.7L161.3,244.5z M89.4,100.1l-0.5-0.5l-2.5-2.2
	c-4.9,6-8.7,12.6-11.5,19.8l3.8,1.2C81.4,111.9,84.9,105.7,89.4,100.1z M211.1,78.1l1.7-1.5l1.3-1.1c-7.8-8-16.7-14.4-26.6-19.4
	l-1.6,3.7C195.3,64.4,203.7,70.6,211.1,78.1z M108.7,74.4l-1.6-3.7c-7.9,4-15,9.1-21.2,15.4l3,2.7C94.6,83,101.3,78.1,108.7,74.4z
	 M195.4,207.8c6.9-5.5,12.8-12.1,17.5-19.5l-0.2-0.1l-3.2-1.9c-4.5,6.9-10,13.1-16.4,18.2l1.4,1.9L195.4,207.8z M237,157.7
	c-1.5,10.4-4.8,20.4-9.6,29.7l3.5,2c5.2-9.8,8.6-20.3,10.2-31.3L237,157.7z M197.7,211.1l1.3,1.8l1.1,1.4c7.7-6.2,14.5-13.7,19.8-22
	l-3.5-2C211.3,198.2,205,205.2,197.7,211.1z M95.6,217.4l-1.2,1.6c8.3,5.5,17.4,9.5,27,12l0.8-3.9l0-0.1
	c-9.1-2.4-17.6-6.2-25.5-11.4L95.6,217.4z M160.4,240.5l-0.4-1.8l-0.4-2.1c-10.3,1.7-20.9,1.7-31.2,0l-0.8,3.9
	c5.4,0.9,10.9,1.4,16.4,1.4C149.5,241.9,155,241.5,160.4,240.5z M169.1,242.8l0.4,2l0.4,1.9c11.8-3,22.9-7.9,33.1-14.7l-2.4-3.2
	C191,235.2,180.4,239.9,169.1,242.8z M182.6,67.1c8.4,4.2,15.9,9.7,22.6,16.4l2.1-1.9l0.9-0.8c-7-7.1-15-12.9-23.9-17.4L182.6,67.1z
	 M105.3,203.9l-1.5,2.1c6.5,4.2,13.5,7.3,20.9,9.3l0.8-3.9c-6.9-1.9-13.4-4.8-19.4-8.6L105.3,203.9z M130,228.9l-0.8,3.8
	c4.9,0.8,9.8,1.2,14.8,1.2s9.9-0.4,14.8-1.2l-0.8-3.9C148.7,230.3,139.3,230.3,130,228.9L130,228.9z M206,184.3L206,184.3l-3.5-2
	c-3.9,6-8.7,11.3-14.2,15.8l2.4,3.2C196.6,196.5,201.8,190.8,206,184.3z M99.1,108.9l-0.7-0.7c-3.4,4.3-6.1,9-8.1,14.1l3,1l0.9,0.3
	c1.8-4.5,4.3-8.7,7.3-12.6L99.1,108.9z M140,78.1c-6.6,0.4-13,1.8-19.1,4.1l1.6,3.7c5.6-2.1,11.5-3.3,17.5-3.7V78.1z M116.8,92.7
	c-4.8,2.6-9.2,5.7-13.1,9.5l0.3,0.3l2.7,2.4c3.5-3.4,7.5-6.2,11.8-8.6l-1.1-2.4L116.8,92.7z M210,143.9c0-5.6-0.7-11.1-2.1-16.5
	l-3.8,1.2c1.3,5,1.9,10.1,1.9,15.3c0,0.8,0,1.7-0.1,2.5l4,0.4C210,145.9,210,144.9,210,143.9z M177.4,78.8l-1.3,2.9
	c6.4,3.3,12.1,7.5,17.2,12.5l3-2.7c-5.5-5.4-11.7-10-18.5-13.5L177.4,78.8z M217.9,147.7c0.1-1.3,0.1-2.5,0.1-3.8
	c0-6.4-0.8-12.8-2.5-19l-3.8,1.2c1.5,5.8,2.3,11.8,2.3,17.8c0,1.1,0,2.2-0.1,3.3L217.9,147.7z M131.7,220.9l-0.8,3.9
	c4.3,0.7,8.7,1.1,13.1,1.1s8.8-0.4,13.1-1.1l-0.8-3.9C148.2,222.2,139.8,222.2,131.7,220.9z M82.6,119.8l3.8,1.2
	c2.2-5.6,5.2-10.8,9-15.5l-3-2.7C88.3,108,85,113.7,82.6,119.8z M71.6,190.3l-3.5,2c5.3,8.3,12.1,15.8,19.8,22l0.1-0.1l2.3-3.1
	C83,205.2,76.7,198.2,71.6,190.3z M179.3,74.4c7.4,3.7,14,8.6,19.9,14.4l0.1-0.1l2.8-2.6c-6.2-6.3-13.3-11.4-21.2-15.4L179.3,74.4z
	 M100.7,210.3l-1.6,2.2c7.4,4.9,15.4,8.4,24,10.7l0.8-3.9c-8-2.1-15.5-5.5-22.4-10L100.7,210.3z M64.7,194.4l-3.5,2
	c5.9,9.3,13.4,17.6,22,24.4l2.4-3.2C77.4,211,70.3,203.1,64.7,194.4z M176.9,60.1c-9.2-3.6-18.9-5.7-28.9-6.1v4
	c9.4,0.4,18.6,2.4,27.3,5.8L176.9,60.1z M173.7,67.5c-8.2-3.2-16.8-5-25.7-5.5v4c8.3,0.4,16.3,2.1,24,5.1L173.7,67.5z M140,70
	c-7.7,0.4-15.2,2-22.4,4.8l1.6,3.7c6.7-2.5,13.6-4,20.8-4.4V70z M100.7,99.6c4.3-4.2,9.1-7.7,14.5-10.5l-1.6-3.7
	c-5.8,3-11.1,6.9-15.8,11.5L100.7,99.6z M191.6,128.5c-2.2-6.7-5.7-12.8-10.4-18l-3,2.7c4.3,4.8,7.6,10.4,9.6,16.6
	c1.5,4.6,2.2,9.4,2.2,14.2c0,1.6-0.1,3.2-0.3,4.8v0c-0.7,6.4-2.7,12.6-5.9,18.2c-3.2,5.6-7.6,10.4-12.8,14.2
	c-5.3,3.8-11.1,6.4-17.5,7.8c-6.3,1.3-12.8,1.3-19.1,0c-6.3-1.3-12.2-4-17.5-7.8c-5.2-3.8-9.6-8.6-12.8-14.2
	c-3.3-5.6-5.2-11.7-5.9-18.2c-0.2-1.6-0.3-3.2-0.3-4.8c0-4.8,0.8-9.6,2.2-14.2v0c2-6.2,5.2-11.7,9.6-16.6l0,0
	c4.3-4.8,9.5-8.6,15.5-11.2c5.9-2.6,12.2-4,18.7-4s12.8,1.3,18.7,4c5.9,2.6,11.1,6.4,15.5,11.2l3-2.7c-4.7-5.2-10.4-9.4-16.8-12.2
	c-6.4-2.9-13.3-4.3-20.3-4.3s-13.9,1.5-20.3,4.3c-6.4,2.9-12.1,7-16.8,12.2c-4.7,5.2-8.2,11.3-10.4,18l0,0c-1.6,5-2.4,10.2-2.4,15.4
	c0,1.7,0.1,3.5,0.3,5.2c0.7,7,2.9,13.7,6.4,19.8c3.5,6.1,8.2,11.3,13.9,15.4c5.7,4.2,12.1,7,19,8.5c3.4,0.7,6.9,1.1,10.4,1.1
	c3.5,0,7-0.4,10.4-1.1c6.9-1.5,13.3-4.3,19-8.5c5.7-4.1,10.4-9.3,13.9-15.4c3.5-6.1,5.7-12.8,6.4-19.8c0.2-1.7,0.3-3.5,0.3-5.2
	C194,138.7,193.2,133.5,191.6,128.5z"/>
<path id="XMLID_1655_" fill="#CCCCCC" d="M121.1,13.9c0.2,0.7,0.1,1.3-0.2,1.7c-0.3,0.4-0.8,0.7-1.4,0.8c-0.6,0.1-1.2,0.1-1.6-0.2
	s-0.7-0.6-0.9-1.1c0-0.1,0-0.3,0-0.3c0.1-0.1,0.2-0.1,0.3-0.2c0.3-0.1,0.4,0,0.5,0.2c0.2,0.7,0.8,1,1.5,0.8c0.9-0.2,1.2-0.7,1-1.7
	l-0.6-2.9c-0.2-0.9-0.7-1.3-1.6-1.1c-0.4,0.1-0.7,0.3-0.9,0.5c-0.2,0.3-0.2,0.7-0.1,1.1l0.2,1l1.2-0.2c0.1,0,0.2,0,0.2,0.1
	c0.1,0.1,0.1,0.1,0.1,0.2c0,0.1,0,0.2,0,0.3c0,0.1-0.1,0.1-0.2,0.1l-1.7,0.4c-0.1,0-0.2,0-0.2,0c-0.1,0-0.1-0.1-0.1-0.2l-0.3-1.4
	c-0.2-0.7-0.1-1.3,0.2-1.7c0.3-0.4,0.8-0.7,1.4-0.8c0.6-0.1,1.2-0.1,1.6,0.2c0.5,0.3,0.8,0.8,0.9,1.5L121.1,13.9z M116,16.1
	c-0.1-0.1-0.3-0.1-0.4-0.1c-0.1,0-0.2,0.1-0.3,0.2c-0.1,0.1-0.1,0.2-0.1,0.4c0,0.1,0.1,0.2,0.2,0.3c0.1,0.1,0.2,0.1,0.4,0.1
	c0.1,0,0.3-0.1,0.3-0.2c0.1-0.1,0.1-0.2,0.1-0.4C116.2,16.2,116.1,16.1,116,16.1z M115.6,14.6c0.1-0.1,0.1-0.1,0.1-0.2l-0.9-4.1
	c0-0.1-0.1-0.1-0.2-0.2c-0.1,0-0.2-0.1-0.3,0c-0.1,0-0.2,0.1-0.3,0.2c-0.1,0.1-0.1,0.2-0.1,0.2l0.9,4.1c0,0.1,0.1,0.1,0.2,0.2
	c0.1,0,0.2,0,0.3,0C115.4,14.7,115.5,14.7,115.6,14.6z M111.2,10.8l-0.3,0.1c-0.1,0-0.2,0.1-0.2,0.2c0,0.1-0.1,0.2,0,0.3
	c0,0.1,0.1,0.2,0.1,0.2c0.1,0.1,0.2,0.1,0.3,0.1l0.3-0.1c0.3-0.1,0.5-0.1,0.7,0c0.1,0.1,0.2,0.3,0.3,0.5l0.5,2.5l-1.2,0.3
	c-0.1,0-0.1,0.1-0.2,0.1c0,0.1,0,0.2,0,0.2c0,0.1,0.1,0.2,0.1,0.2c0.1,0.1,0.1,0.1,0.2,0.1l1.2-0.3l0.4,1.9c0,0.1,0.1,0.1,0.2,0.2
	c0.1,0,0.2,0,0.3,0c0.1,0,0.2-0.1,0.3-0.1c0.1-0.1,0.1-0.1,0.1-0.2l-1.1-5C112.9,10.9,112.2,10.5,111.2,10.8z M80.2,26.8l-1.4-3.5
	l4.9,3.8c0.1,0.1,0.2,0.1,0.4,0c0.1-0.1,0.2-0.2,0.2-0.3c0.1-0.1,0-0.2,0-0.3c0,0,0,0-0.1-0.1l-5.5-4.2c-0.2-0.1-0.4-0.1-0.6,0.1
	s-0.3,0.3-0.2,0.5l1.2,3.2l-2.6-2.2c-0.2-0.1-0.3-0.1-0.6,0.1c-0.2,0.2-0.3,0.4-0.3,0.5l2.3,6.5c0,0,0,0,0,0.1
	c0.1,0.1,0.1,0.1,0.3,0.1c0.1,0,0.2,0,0.3-0.1c0.1-0.1,0.2-0.2,0.1-0.3l-2.1-5.8l2.9,2.4c0.1,0.1,0.3,0.1,0.5,0
	C80.2,27.2,80.2,27,80.2,26.8z M71.7,29.4c-0.3-0.4-0.4-0.9-0.3-1.4c0.1-0.6,0.3-1,0.8-1.3c0.4-0.3,0.9-0.4,1.5-0.3s1,0.3,1.3,0.8
	l0.6,0.8c0.3,0.4,0.4,0.9,0.3,1.4c-0.1,0.5-0.4,1-0.8,1.3s-0.9,0.4-1.5,0.4c-0.5-0.1-1-0.3-1.3-0.7L71.7,29.4z M72.1,28
	c0,0.3,0,0.6,0.2,0.9l0.6,0.8c0.2,0.2,0.4,0.4,0.7,0.5c0.3,0.1,0.6,0,0.9-0.2s0.4-0.4,0.4-0.8c0-0.3,0-0.6-0.2-0.8l-0.6-0.8
	c-0.2-0.3-0.4-0.4-0.8-0.5c-0.3-0.1-0.6,0-0.9,0.2C72.3,27.4,72.2,27.7,72.1,28z M70.6,33.8l0.3-0.2c0.2-0.2,0.4-0.4,0.5-0.7
	c0.1-0.3,0.1-0.5,0.1-0.8l0.3,0.4c0.1,0.1,0.1,0.1,0.2,0.1c0.1,0,0.2,0,0.3-0.1c0.1-0.1,0.2-0.2,0.2-0.2c0-0.1,0-0.2,0-0.2l-2.4-3.4
	c0-0.1-0.1-0.1-0.2-0.1c-0.1,0-0.2,0-0.3,0.1c-0.1,0.1-0.2,0.1-0.2,0.2c0,0.1,0,0.2,0,0.2l1.3,1.8c0.3,0.4,0.4,0.7,0.3,1.1
	c0,0.4-0.2,0.7-0.5,0.9l-0.3,0.2c-0.1,0.1-0.1,0.1-0.1,0.2c0,0.1,0,0.2,0.1,0.3c0.1,0.1,0.1,0.1,0.2,0.2
	C70.4,33.8,70.5,33.8,70.6,33.8z M68.9,32.6c0.3,0.4,0.4,0.9,0.4,1.4c-0.1,0.5-0.3,0.9-0.7,1.2c-0.2,0.2-0.5,0.3-0.8,0.3
	c-0.3,0-0.5,0-0.7-0.1L69,38c0.1,0.1,0.1,0.2,0,0.2c0,0.1-0.1,0.2-0.2,0.2c-0.1,0.1-0.2,0.1-0.3,0.1c-0.1,0-0.2,0-0.2-0.1l-4.1-5.7
	c0-0.1-0.1-0.1,0-0.2c0-0.1,0.1-0.2,0.2-0.2c0.1-0.1,0.2-0.1,0.3-0.1c0.1,0,0.2,0,0.2,0.1l0.2,0.3c0-0.2,0-0.5,0.1-0.8
	c0.1-0.3,0.3-0.5,0.5-0.7c0.4-0.3,0.8-0.4,1.3-0.2c0.5,0.1,0.9,0.4,1.2,0.8L68.9,32.6z M68.5,33.9c0-0.3,0-0.6-0.2-0.9l-0.6-0.8
	c-0.2-0.2-0.4-0.4-0.8-0.5c-0.3-0.1-0.6,0-0.9,0.2c-0.2,0.2-0.4,0.4-0.4,0.7c-0.1,0.3,0,0.5,0.1,0.7l0.8,1c0.2,0.3,0.5,0.4,0.8,0.5
	c0.3,0,0.6,0,0.8-0.2C68.3,34.5,68.4,34.3,68.5,33.9z M67.1,39c0,0.1,0.1,0.1,0,0.2c0,0.1-0.1,0.2-0.1,0.2l-1.5,1.1
	c-0.5,0.4-1,0.5-1.6,0.5c-0.5-0.1-1-0.4-1.4-1L62.5,40c-0.4-0.6-0.6-1.2-0.5-1.7c0.1-0.5,0.4-1,1-1.3l1.1-0.8l-1.5-2.1
	c-0.1-0.1-0.1-0.2,0-0.3c0-0.1,0.1-0.2,0.2-0.2c0.1-0.1,0.2-0.1,0.3-0.1c0.1,0,0.2,0,0.2,0.1L67.1,39z M66.2,39.1l-1.7-2.4l-1.1,0.8
	c-0.3,0.2-0.5,0.5-0.6,0.9c0,0.3,0.1,0.7,0.3,1.1l0.1,0.1c0.3,0.4,0.6,0.6,0.9,0.7c0.3,0.1,0.7,0,1-0.3L66.2,39.1z M59,36.6
	c0-0.1-0.1-0.1-0.2-0.1c-0.1,0-0.2,0-0.3,0.1c-0.1,0.1-0.2,0.1-0.2,0.2c0,0.1,0,0.2,0,0.2l1.3,1.8c0.3,0.4,0.4,0.7,0.3,1.1
	c0,0.4-0.2,0.7-0.5,0.9l-0.3,0.2c-0.1,0.1-0.1,0.1-0.1,0.2c0,0.1,0,0.2,0.1,0.3c0.1,0.1,0.1,0.1,0.2,0.2c0.1,0,0.2,0,0.2,0l0.3-0.2
	c0.2-0.2,0.4-0.4,0.5-0.7c0.1-0.3,0.1-0.5,0.1-0.8l0.3,0.4c0.1,0.1,0.1,0.1,0.2,0.1c0.1,0,0.2,0,0.3-0.1c0.1-0.1,0.2-0.2,0.2-0.2
	c0-0.1,0-0.2,0-0.2L59,36.6z M58,40.6c0.3,0.4,0.4,0.9,0.3,1.4c-0.1,0.5-0.4,1-0.8,1.3c-0.4,0.3-0.9,0.4-1.4,0.4
	c-0.5-0.1-0.9-0.3-1.2-0.7c-0.1-0.2-0.2-0.3-0.2-0.4c0-0.1,0-0.2,0-0.3c0-0.1,0.1-0.2,0.2-0.2s0.1-0.1,0.3-0.2l1.8-1.3l-0.2-0.2
	c-0.2-0.3-0.5-0.5-0.8-0.5c-0.3,0-0.7,0.1-1,0.3c-0.2,0.1-0.3,0.3-0.4,0.4c-0.1,0.1-0.2,0.3-0.2,0.4c0,0.1-0.1,0.2-0.1,0.2
	c-0.1,0.1-0.2,0.1-0.3,0c-0.1,0-0.2-0.1-0.2-0.1c-0.1-0.1-0.1-0.3,0.1-0.6c0.2-0.3,0.4-0.6,0.8-0.9c0.5-0.4,1.1-0.6,1.6-0.5
	c0.5,0,1,0.3,1.3,0.8L58,40.6z M57.6,42c0.1-0.3,0-0.6-0.2-0.8l-0.2-0.3L55.7,42c-0.1,0.1-0.2,0.2-0.2,0.3c0,0.1,0,0.2,0.1,0.3
	c0.2,0.2,0.4,0.4,0.7,0.4c0.3,0.1,0.6,0,0.9-0.2C57.4,42.5,57.6,42.3,57.6,42z M53.9,43.2c-0.2-0.1-0.5,0-0.7,0
	c-0.2,0.1-0.5,0.2-0.7,0.2c-0.2,0.1-0.5,0.1-0.7,0.1c-0.2,0-0.4-0.1-0.5-0.3c-0.1-0.1-0.1-0.3-0.1-0.5c0.1-0.2,0.2-0.4,0.5-0.6
	c0.2-0.1,0.4-0.2,0.6-0.3c0.2,0,0.4-0.1,0.5-0.1c0.1,0,0.2,0,0.3,0c0.1,0,0.1-0.1,0.1-0.2c0-0.1,0-0.2-0.1-0.3
	c-0.1-0.1-0.3-0.2-0.7-0.1c-0.4,0.1-0.7,0.2-1.1,0.5c-0.4,0.3-0.7,0.6-0.8,1c-0.1,0.4,0,0.7,0.2,1c0.2,0.3,0.4,0.4,0.7,0.5
	c0.3,0.1,0.5,0.1,0.8,0c0.2-0.1,0.5-0.2,0.7-0.2s0.4-0.1,0.6-0.2c0.2,0,0.4,0.1,0.5,0.2c0.1,0.1,0.1,0.3,0.1,0.5s-0.2,0.4-0.4,0.6
	c-0.2,0.1-0.4,0.2-0.6,0.3c-0.2,0.1-0.4,0.1-0.4,0.1c-0.1,0.1-0.1,0.1-0.1,0.3c0,0.1,0,0.2,0.1,0.3c0.1,0.1,0.3,0.1,0.6,0
	c0.3-0.1,0.6-0.2,0.9-0.4c0.4-0.3,0.7-0.7,0.8-1.1c0.1-0.4,0-0.7-0.2-1C54.4,43.4,54.2,43.3,53.9,43.2z M48.2,46.6
	c0.3,0.1,0.5,0.1,0.8,0s0.5-0.2,0.7-0.2c0.2-0.1,0.4-0.1,0.6-0.2c0.2,0,0.4,0.1,0.5,0.2c0.1,0.1,0.1,0.3,0.1,0.5
	c0,0.2-0.2,0.4-0.4,0.6c-0.2,0.1-0.4,0.2-0.6,0.3c-0.2,0.1-0.4,0.1-0.4,0.1c-0.1,0.1-0.1,0.1-0.1,0.3c0,0.1,0,0.2,0.1,0.3
	c0.1,0.1,0.3,0.1,0.6,0c0.3-0.1,0.6-0.2,0.9-0.4c0.4-0.3,0.7-0.7,0.8-1.1c0.1-0.4,0-0.7-0.2-1c-0.2-0.3-0.4-0.4-0.6-0.5
	s-0.5,0-0.7,0c-0.2,0.1-0.5,0.2-0.7,0.2c-0.2,0.1-0.5,0.1-0.7,0.1c-0.2,0-0.4-0.1-0.5-0.3C48,45.5,48,45.3,48,45.2
	c0.1-0.2,0.2-0.4,0.5-0.6c0.2-0.1,0.4-0.2,0.6-0.3c0.2,0,0.4-0.1,0.5-0.1c0.1,0,0.2,0,0.3,0c0.1,0,0.1-0.1,0.1-0.2
	c0-0.1,0-0.2-0.1-0.3c-0.1-0.1-0.3-0.2-0.7-0.1c-0.4,0.1-0.7,0.2-1.1,0.5c-0.4,0.3-0.7,0.6-0.8,1c-0.1,0.4,0,0.7,0.2,1
	C47.7,46.4,48,46.6,48.2,46.6z M28.7,69.5c0-0.1,0-0.2,0.1-0.3c0.1-0.1,0.1-0.2,0.2-0.2c0.1,0,0.2,0,0.3,0l5.8,3.4
	c0.1,0,0.1,0.1,0.1,0.2c0,0.1,0,0.2,0,0.3l-0.9,1.6c-0.3,0.6-0.7,0.9-1.2,1.1c-0.5,0.2-1.1,0.1-1.7-0.3l-0.1,0
	c-0.6-0.4-1-0.8-1.1-1.3c-0.1-0.5,0-1.1,0.3-1.6l0.7-1.2l-2.2-1.3C28.8,69.7,28.7,69.6,28.7,69.5z M31.7,71.4L31,72.6
	c-0.2,0.4-0.3,0.7-0.2,1c0.1,0.3,0.3,0.6,0.7,0.8l0.1,0.1c0.4,0.2,0.8,0.3,1.1,0.2c0.3-0.1,0.6-0.3,0.8-0.7l0.7-1.2L31.7,71.4z
	 M30.7,80.1l-2.5-1.4l1.4-2.3l2.5,1.4c0.1,0,0.2,0,0.2,0c0.1,0,0.2-0.1,0.2-0.2s0.1-0.2,0.1-0.3c0-0.1,0-0.2-0.1-0.2l-5.8-3.4
	c-0.1,0-0.2,0-0.3,0c-0.1,0-0.2,0.1-0.2,0.2s-0.1,0.2-0.1,0.3c0,0.1,0,0.2,0.1,0.2l2.7,1.6l-1.4,2.3l-2.7-1.6c-0.1,0-0.2,0-0.3,0
	c-0.1,0-0.2,0.1-0.2,0.2c-0.1,0.1-0.1,0.2-0.1,0.3c0,0.1,0,0.2,0.1,0.2l5.8,3.4c0.1,0,0.2,0,0.2,0c0.1,0,0.2-0.1,0.2-0.2
	c0.1-0.1,0.1-0.2,0.1-0.3C30.8,80.2,30.7,80.1,30.7,80.1z M29.5,82c0.1,0,0.1,0.1,0.1,0.2c0,0.1,0,0.2,0,0.3l-0.9,1.6
	c-0.3,0.6-0.7,0.9-1.2,1.1c-0.5,0.2-1.1,0.1-1.7-0.3l-0.1,0c-0.6-0.4-1-0.8-1.1-1.3c-0.1-0.5,0-1.1,0.3-1.6l0.7-1.2l-2.2-1.3
	c-0.1,0-0.1-0.1-0.1-0.2s0-0.2,0.1-0.3s0.1-0.2,0.2-0.2c0.1,0,0.2,0,0.3,0L29.5,82z M28.7,82.5l-2.6-1.5l-0.7,1.2
	c-0.2,0.4-0.3,0.7-0.2,1c0.1,0.3,0.3,0.6,0.7,0.8l0.1,0.1c0.4,0.2,0.8,0.3,1.1,0.2c0.3-0.1,0.6-0.3,0.8-0.7L28.7,82.5z M8.7,122.2
	l6.7,0.7c0.1,0,0.2,0,0.2-0.1c0.1-0.1,0.1-0.2,0.1-0.3c0-0.1,0-0.2,0-0.3s-0.1-0.1-0.2-0.1l-6.7-0.7c-0.1,0-0.2,0-0.2,0.1
	c-0.1,0.1-0.1,0.2-0.1,0.3c0,0.1,0,0.2,0,0.3C8.6,122.1,8.6,122.1,8.7,122.2z M8.5,126.6c-0.3-0.4-0.5-0.9-0.4-1.4
	c0.1-0.5,0.3-1,0.7-1.3c0.4-0.4,0.9-0.5,1.4-0.4l1,0.1c0.5,0.1,0.9,0.3,1.3,0.7c0.3,0.4,0.5,0.9,0.4,1.4s-0.3,1-0.7,1.3
	c-0.4,0.4-0.9,0.5-1.4,0.4l-1-0.1C9.2,127.3,8.8,127,8.5,126.6z M8.8,125.2c0,0.3,0.1,0.6,0.3,0.8c0.2,0.2,0.5,0.4,0.8,0.4l1,0.1
	c0.3,0,0.6-0.1,0.8-0.3c0.3-0.2,0.4-0.5,0.4-0.8c0-0.3-0.1-0.6-0.3-0.8c-0.2-0.2-0.5-0.4-0.8-0.4l-1-0.1c-0.3,0-0.6,0.1-0.9,0.3
	C9,124.7,8.8,124.9,8.8,125.2z M7.7,132l2.6,0.3c0.5,0.1,1-0.1,1.4-0.4c0.4-0.3,0.6-0.7,0.7-1.2c0-0.3,0-0.6-0.1-0.8
	c-0.1-0.3-0.3-0.4-0.5-0.6l0.4,0c0.1,0,0.2,0,0.2-0.1c0.1-0.1,0.1-0.2,0.1-0.3c0-0.1,0-0.2,0-0.3c0-0.1-0.1-0.1-0.2-0.1l-4.1-0.4
	c-0.1,0-0.2,0-0.2,0.1c-0.1,0.1-0.1,0.2-0.1,0.3c0,0.1,0,0.2,0.1,0.3c0.1,0.1,0.1,0.1,0.2,0.1l2.6,0.3c0.3,0,0.6,0.2,0.8,0.4
	c0.2,0.2,0.3,0.5,0.2,0.8c0,0.3-0.2,0.6-0.4,0.8c-0.3,0.2-0.5,0.3-0.8,0.3l-2.6-0.3c-0.1,0-0.2,0-0.2,0.1c-0.1,0.1-0.1,0.2-0.1,0.3
	c0,0.1,0,0.2,0,0.3C7.5,131.9,7.6,132,7.7,132z M7.5,134l4.1,0.4c0.1,0,0.2,0,0.2-0.1c0.1-0.1,0.1-0.2,0.1-0.3c0-0.1,0-0.2,0-0.3
	c0-0.1-0.1-0.1-0.2-0.1l-4.1-0.4c-0.1,0-0.2,0-0.2,0.1c-0.1,0.1-0.1,0.2-0.1,0.3c0,0.1,0,0.2,0.1,0.3C7.3,133.9,7.4,134,7.5,134z
	 M13.4,133.8c-0.1,0.1-0.2,0.2-0.2,0.3c0,0.1,0,0.3,0.1,0.4c0.1,0.1,0.2,0.2,0.3,0.2c0.1,0,0.2,0,0.3-0.1c0.1-0.1,0.2-0.2,0.2-0.3
	c0-0.1,0-0.3-0.1-0.4c-0.1-0.1-0.2-0.2-0.3-0.2C13.6,133.7,13.5,133.7,13.4,133.8z M7.8,138.2c0,0,0-0.2-0.1-0.4
	c-0.1-0.2-0.1-0.5-0.1-0.7c0.1-0.8,0.5-1.2,1.3-1.1l1,0.1c0.4,0,0.7,0.2,0.8,0.4c0.2,0.2,0.3,0.5,0.2,0.9c0,0.3-0.1,0.5-0.2,0.7
	c-0.1,0.2-0.2,0.3-0.2,0.3c0,0.1,0,0.2,0.1,0.3c0.1,0.1,0.2,0.1,0.3,0.1c0.2,0,0.3-0.1,0.5-0.4c0.2-0.3,0.3-0.6,0.3-1
	c0.1-0.7-0.1-1.2-0.4-1.5c-0.3-0.4-0.8-0.6-1.3-0.6l-1-0.1c-0.6-0.1-1.1,0.1-1.4,0.4c-0.4,0.3-0.6,0.8-0.7,1.4c0,0.4,0,0.8,0.1,1.1
	c0.1,0.3,0.3,0.5,0.4,0.5c0.1,0,0.2,0,0.3-0.1C7.7,138.4,7.8,138.3,7.8,138.2z M9.2,172.3C9.1,172.3,9,172.2,9,172
	c0-0.2,0-0.3,0.1-0.3l1.3-0.9l-0.8-2.5l-1.5,0c-0.1,0-0.2-0.1-0.3-0.2c0-0.1,0-0.2,0-0.4c0-0.1,0.1-0.2,0.2-0.2c0,0,0,0,0.1,0l7-0.1
	c0.2,0,0.3,0.1,0.4,0.4s0,0.5-0.1,0.6l-5.7,4c0,0,0,0,0,0c0,0,0,0,0,0C9.4,172.5,9.3,172.4,9.2,172.3z M10.9,170.4l3.2-2.2l-3.9,0.1
	L10.9,170.4z M13,175.3l-2.4,0.8c-0.1,0-0.1,0.1-0.2,0.2c0,0.1,0,0.2,0,0.3c0,0.1,0.1,0.2,0.2,0.3c0.1,0.1,0.2,0.1,0.2,0l2.5-0.8
	c0.5-0.2,0.9-0.5,1.1-0.9c0.3-0.4,0.3-0.9,0.2-1.3c-0.1-0.3-0.3-0.5-0.5-0.7c-0.2-0.2-0.4-0.3-0.7-0.3l0.4-0.1
	c0.1,0,0.1-0.1,0.2-0.2c0-0.1,0-0.2,0-0.3c0-0.1-0.1-0.2-0.2-0.3c-0.1-0.1-0.2-0.1-0.2,0l-3.9,1.3c-0.1,0-0.1,0.1-0.2,0.2
	s0,0.2,0,0.3c0,0.1,0.1,0.2,0.2,0.2c0.1,0.1,0.2,0.1,0.2,0.1l2.4-0.8c0.3-0.1,0.6-0.1,0.9,0.1s0.5,0.4,0.5,0.6
	c0.1,0.3,0.1,0.6-0.1,0.9C13.5,175,13.3,175.2,13,175.3z M12.5,179.3c-0.1-0.3-0.1-0.5-0.1-0.8c-0.1-0.1-0.3-0.2-0.4-0.1
	c-0.1,0-0.2,0.1-0.2,0.3c0,0.2,0,0.4,0,0.6s0.1,0.5,0.1,0.7c0.1,0.3,0.1,0.5,0.1,0.8c0,0.2-0.1,0.5-0.2,0.7
	c-0.1,0.2-0.3,0.4-0.6,0.4c-0.4,0.1-0.8,0.1-1.2-0.2c-0.4-0.3-0.6-0.7-0.8-1.3s-0.2-1.1-0.1-1.5c0.1-0.4,0.4-0.7,0.8-0.9
	c0.5-0.2,0.9,0,1.3,0.4c0-0.3,0.2-0.6,0.5-0.7c0.3-0.1,0.6,0,0.9,0.2c0.2-0.5,0.5-0.8,1-0.9l0.3-0.1c0.5-0.2,0.9-0.1,1.3,0.1
	c0.4,0.2,0.7,0.6,0.8,1.1c0.1,0.4,0.1,0.8,0,1.2c0.5,0.1,0.7,0.2,0.8,0.5c0,0.1,0,0.2,0,0.3c0,0.1-0.1,0.1-0.2,0.2
	c-0.1,0-0.2,0-0.2-0.1c-0.1-0.2-0.3-0.3-0.6-0.4c-0.2,0.3-0.4,0.5-0.8,0.6l-0.3,0.1c-0.5,0.1-0.9,0.1-1.3-0.1
	C13,180.1,12.7,179.8,12.5,179.3z M13.1,179.1c0.1,0.3,0.3,0.5,0.5,0.6c0.2,0.1,0.5,0.1,0.8,0l0.3-0.1c0.3-0.1,0.5-0.3,0.6-0.5
	c0.1-0.2,0.2-0.5,0.1-0.8c-0.1-0.3-0.3-0.5-0.5-0.6c-0.2-0.1-0.5-0.1-0.8,0l-0.3,0.1c-0.3,0.1-0.5,0.3-0.7,0.5
	C13,178.5,13,178.8,13.1,179.1z M11.5,180.5c0-0.1,0-0.2,0-0.3c0-0.1,0-0.2-0.1-0.3c0-0.1,0-0.2-0.1-0.3c0-0.1,0-0.2-0.1-0.3
	c-0.3-0.4-0.7-0.6-1-0.5c-0.2,0.1-0.4,0.3-0.5,0.5c-0.1,0.3-0.1,0.6,0.1,1c0.1,0.4,0.3,0.6,0.5,0.8c0.2,0.2,0.5,0.2,0.7,0.1
	c0.1,0,0.2-0.1,0.3-0.1c0.1-0.1,0.1-0.1,0.1-0.2S11.4,180.5,11.5,180.5z M15.3,185.5l2.5-0.8c0.1,0,0.1-0.1,0.2-0.2
	c0-0.1,0-0.2,0-0.3c0-0.1-0.1-0.2-0.2-0.3c-0.1-0.1-0.2-0.1-0.2-0.1l-2.5,0.8c-0.3,0.1-0.6,0.1-0.9-0.1s-0.5-0.4-0.6-0.7
	c-0.1-0.3-0.1-0.6,0.1-0.9c0.2-0.3,0.4-0.5,0.7-0.6l2.5-0.8c0.1,0,0.1-0.1,0.2-0.2s0-0.2,0-0.3c0-0.1-0.1-0.2-0.2-0.3
	c-0.1-0.1-0.2-0.1-0.2-0.1l-2.5,0.8c-0.5,0.2-0.9,0.5-1.1,1c-0.2,0.5-0.3,1-0.1,1.5c0.2,0.5,0.5,0.9,1,1.1
	C14.3,185.7,14.8,185.7,15.3,185.5z M21.3,185.6c0-0.1,0-0.2,0-0.3s-0.1-0.2-0.2-0.3c-0.1-0.1-0.2-0.1-0.2,0l-6.7,2.2
	c-0.1,0-0.1,0.1-0.2,0.2s0,0.2,0,0.3s0.1,0.2,0.2,0.3c0.1,0.1,0.2,0.1,0.2,0.1l6.7-2.2C21.2,185.8,21.3,185.7,21.3,185.6z
	 M18.3,191.6l-2.4,0.8c-0.1,0-0.2,0-0.2,0c-0.1-0.1-0.1-0.1-0.2-0.3c0-0.1,0-0.2,0-0.3s0.1-0.1,0.2-0.2l0.4-0.1
	c-0.6-0.3-1-0.7-1.2-1.2c-0.1-0.4-0.1-0.7,0-1c0.1-0.3,0.4-0.5,0.8-0.7c0.5-0.2,0.9-0.1,1.2,0.2c0.3,0.3,0.6,0.8,0.8,1.6l0.1,0.5
	l0.2-0.1c0.3-0.1,0.6-0.3,0.7-0.5c0.2-0.3,0.2-0.6,0.1-0.9c-0.1-0.3-0.2-0.5-0.4-0.7c-0.2-0.2-0.2-0.3-0.3-0.3c0-0.1,0-0.2,0.1-0.3
	c0.1-0.1,0.1-0.1,0.2-0.2c0.1,0,0.3,0.1,0.5,0.3c0.2,0.3,0.4,0.5,0.5,0.9c0.2,0.6,0.2,1.1-0.1,1.5C19.2,191.1,18.8,191.4,18.3,191.6
	z M17.4,191l-0.1-0.3c-0.1-0.2-0.1-0.3-0.2-0.5s-0.1-0.3-0.2-0.4c-0.1-0.1-0.2-0.2-0.2-0.3c-0.1-0.1-0.2-0.1-0.3-0.2
	c-0.1,0-0.2,0-0.4,0c-0.2,0.1-0.4,0.2-0.5,0.4s-0.1,0.4,0,0.6c0.1,0.3,0.3,0.5,0.6,0.7c0.3,0.2,0.6,0.2,0.8,0.2L17.4,191z
	 M19.8,193.6c0.3,0.2,0.6,0.4,0.7,0.7l0.1,0.3c0,0.1,0.1,0.1,0.2,0.2c0.1,0,0.2,0,0.3,0c0.1,0,0.2-0.1,0.2-0.2
	c0.1-0.1,0.1-0.2,0-0.2l-0.1-0.3c-0.1-0.3-0.2-0.5-0.5-0.7c-0.2-0.2-0.5-0.3-0.7-0.3l0.5-0.1c0.1,0,0.1-0.1,0.2-0.2
	c0-0.1,0-0.2,0-0.3c0-0.1-0.1-0.2-0.2-0.3c-0.1-0.1-0.2-0.1-0.2,0l-3.9,1.3c-0.1,0-0.1,0.1-0.2,0.2s0,0.2,0,0.3
	c0,0.1,0.1,0.2,0.2,0.3c0.1,0.1,0.2,0.1,0.2,0.1l2.2-0.7C19.1,193.4,19.4,193.4,19.8,193.6z M20,199.1l4.7-1.5
	c0.1,0,0.1-0.1,0.2-0.2c0-0.1,0-0.2,0-0.3l-0.5-1.7c-0.1-0.2-0.2-0.2-0.4-0.2c-0.1,0-0.2,0.1-0.2,0.2c-0.1,0.1-0.1,0.1,0,0.2
	l0.4,1.2l-4.2,1.4c-0.9,0.3-1.5,0-1.8-0.8c-0.1-0.4-0.1-0.7,0-1c0.1-0.3,0.4-0.5,0.7-0.6c0.2-0.1,0.2-0.2,0.1-0.5
	c0-0.1-0.1-0.2-0.2-0.3c-0.1,0-0.2,0-0.3,0c-0.5,0.2-0.9,0.5-1.1,1c-0.2,0.5-0.2,1,0,1.7c0.2,0.6,0.5,1,1,1.3
	C18.7,199.3,19.3,199.3,20,199.1z M25.7,200c-0.1-0.2-0.3-0.4-0.5-0.6c-0.2-0.2-0.4-0.3-0.7-0.3c-0.3,0-0.6,0-0.9,0.1
	c-0.4,0.1-0.7,0.4-0.9,0.7c-0.2,0.3-0.3,0.6-0.3,1c0,0.3-0.1,0.7-0.1,1c0,0.3-0.1,0.7-0.2,0.9s-0.4,0.5-0.7,0.6
	c-0.4,0.1-0.7,0.1-1-0.1c-0.3-0.2-0.5-0.5-0.6-0.9c-0.1-0.3-0.1-0.5-0.1-0.7c0-0.2,0.1-0.4,0.1-0.5c0.1-0.1,0.1-0.2,0.2-0.4
	c0.1-0.1,0.1-0.2,0-0.3c0-0.1-0.1-0.2-0.2-0.2c-0.1,0-0.2,0-0.3,0c-0.2,0.1-0.4,0.3-0.5,0.8c-0.1,0.5-0.1,1,0.1,1.5
	c0.2,0.6,0.5,1.1,1,1.3c0.5,0.3,1,0.3,1.7,0.1c0.5-0.2,0.8-0.4,1.1-0.7c0.2-0.3,0.4-0.6,0.4-1c0-0.4,0.1-0.7,0.1-1
	c0-0.3,0.1-0.7,0.2-0.9c0.1-0.3,0.3-0.5,0.6-0.6c0.3-0.1,0.6-0.1,0.9,0.1c0.2,0.2,0.4,0.5,0.5,0.9c0.1,0.3,0.1,0.6,0.1,0.9
	c0,0.3,0,0.5,0,0.5c0,0.1,0.1,0.2,0.2,0.2c0.1,0,0.2,0,0.3,0c0.2-0.1,0.3-0.3,0.3-0.7c0-0.4-0.1-0.8-0.2-1.2
	C25.9,200.4,25.8,200.2,25.7,200z M38.1,224.2c0-0.1-0.1-0.2-0.1-0.3c-0.1-0.1-0.2-0.1-0.3-0.2c-0.1,0-0.2,0-0.2,0.1l-3.6,3.2
	c-0.3,0.3-0.5,0.4-0.7,0.5c-0.2,0.1-0.4,0-0.6-0.2c-0.1-0.1-0.1-0.1-0.2-0.1c-0.1,0-0.2,0-0.3,0.1c-0.2,0.2-0.2,0.4,0,0.6
	c0.3,0.3,0.7,0.5,1.1,0.4c0.4-0.1,0.8-0.3,1.3-0.7l3.6-3.2C38.1,224.4,38.1,224.3,38.1,224.2z M39.2,223.3c0.1,0,0.3,0,0.3-0.1
	c0.1-0.1,0.1-0.2,0.1-0.3c0-0.1,0-0.3-0.1-0.4c-0.1-0.1-0.2-0.2-0.4-0.2c-0.1,0-0.3,0-0.3,0.1c-0.1,0.1-0.1,0.2-0.1,0.3
	c0,0.1,0,0.3,0.1,0.4C39,223.2,39.1,223.3,39.2,223.3z M39.9,230.1c-0.5,0.5-1,0.7-1.5,0.7c-0.5,0-0.9-0.2-1.3-0.6l-0.6,0.5
	c-0.1,0.1-0.1,0.1-0.2,0.1c-0.1,0-0.1,0-0.2-0.1s-0.1-0.1-0.1-0.2c0-0.1,0-0.2,0.1-0.2l0.6-0.5c-0.4-0.5-0.5-0.9-0.5-1.4
	c0-0.5,0.3-1,0.8-1.4l2.2-2c0.6-0.5,1.1-0.7,1.6-0.7c0.5,0.1,1,0.3,1.4,0.8c0.4,0.5,0.7,1,0.7,1.5c0,0.5-0.3,1-0.8,1.5L39.9,230.1z
	 M39.4,229.5l2.2-2c0.4-0.3,0.5-0.6,0.6-1c0-0.3-0.1-0.7-0.4-1c-0.6-0.6-1.2-0.7-1.9,0l-2.2,2c-0.6,0.5-0.7,1.1-0.3,1.7l0.5-0.5
	c0.1-0.1,0.1-0.1,0.2-0.1c0.1,0,0.1,0,0.2,0.1s0.1,0.1,0.1,0.2c0,0.1,0,0.1-0.1,0.2l-0.5,0.5C38.2,230.1,38.8,230.1,39.4,229.5z
	 M45.2,232.1c0-0.1-0.1-0.2-0.1-0.3c-0.1-0.1-0.2-0.1-0.3-0.2s-0.2,0-0.2,0l-1.9,1.7c-0.2,0.2-0.5,0.3-0.8,0.3
	c-0.3,0-0.6-0.1-0.8-0.4c-0.2-0.2-0.3-0.5-0.3-0.8c0-0.3,0.2-0.6,0.4-0.8L43,230c0.1,0,0.1-0.1,0.1-0.2c0-0.1,0-0.2-0.1-0.3
	c-0.1-0.1-0.2-0.1-0.3-0.2c-0.1,0-0.2,0-0.2,0l-1.9,1.7c-0.4,0.3-0.6,0.8-0.6,1.3c0,0.5,0.1,1,0.5,1.4c0.4,0.4,0.8,0.6,1.4,0.6
	c0.5,0,1-0.1,1.4-0.5l1.9-1.7C45.1,232.3,45.2,232.2,45.2,232.1z M45.5,237.9c0.1,0.1,0.1,0.2,0.1,0.3c0,0.1-0.1,0.2-0.1,0.2
	c-0.1,0.1-0.3,0.1-0.7,0c-0.3-0.1-0.6-0.3-0.9-0.7c-0.4-0.5-0.7-1-0.7-1.5c0-0.5,0.2-1,0.6-1.4l0.8-0.7c0.4-0.3,0.8-0.5,1.4-0.5
	s1,0.3,1.4,0.7c0.3,0.4,0.5,0.8,0.5,1.4c0,0.5-0.2,0.9-0.6,1.3c-0.1,0.1-0.3,0.2-0.4,0.3c-0.1,0-0.2,0-0.3,0c-0.1,0-0.2-0.1-0.3-0.1
	c-0.1-0.1-0.1-0.1-0.2-0.2l-1.5-1.6l-0.2,0.2c-0.3,0.2-0.4,0.5-0.4,0.9c0,0.3,0.2,0.7,0.4,1c0.1,0.2,0.3,0.3,0.5,0.4
	c0.2,0.1,0.3,0.1,0.4,0.2C45.4,237.8,45.4,237.9,45.5,237.9z M45,234.8l1.2,1.4c0.1,0.1,0.2,0.2,0.3,0.2c0.1,0,0.2,0,0.2-0.1
	c0.2-0.2,0.3-0.5,0.4-0.8c0-0.3-0.1-0.6-0.3-0.8c-0.2-0.2-0.5-0.4-0.8-0.4c-0.3,0-0.6,0.1-0.8,0.3L45,234.8z M46.4,240l1.7-1.5
	c0.3-0.3,0.7-0.4,1-0.4c0.4,0,0.7,0.1,0.9,0.4l0.2,0.3c0.1,0.1,0.1,0.1,0.2,0.1c0.1,0,0.2,0,0.3-0.1s0.1-0.2,0.1-0.3
	c0-0.1,0-0.2-0.1-0.2l-0.2-0.3c-0.2-0.2-0.4-0.4-0.7-0.4c-0.3-0.1-0.5-0.1-0.8,0l0.4-0.3c0.1-0.1,0.1-0.1,0.1-0.2
	c0-0.1,0-0.2-0.1-0.3c-0.1-0.1-0.2-0.1-0.3-0.2c-0.1,0-0.2,0-0.2,0.1l-3.1,2.8c-0.1,0.1-0.1,0.1-0.1,0.2s0.1,0.2,0.1,0.3
	c0.1,0.1,0.2,0.1,0.3,0.2C46.3,240.1,46.4,240.1,46.4,240z M53.3,241.2l-3.4,1.4l1.7-3.3c0.1-0.1,0-0.2-0.1-0.3
	c-0.1-0.1-0.2-0.2-0.3-0.2c-0.1,0-0.2,0-0.3,0.1c0,0,0,0.1-0.1,0.1l-1.9,3.9c-0.5,0.3-0.9,0.4-1.3,0.4s-0.8-0.1-1-0.3
	c-0.1-0.1-0.3-0.1-0.4,0.1c-0.2,0.2-0.2,0.4,0,0.5c0.1,0.1,0.2,0.2,0.4,0.3c0.1,0.1,0.3,0.1,0.4,0.2c0.1,0,0.3,0,0.5,0
	c0.2,0,0.4,0,0.5-0.1s0.3-0.1,0.5-0.1c0.2-0.1,0.4-0.1,0.5-0.2l0.5-0.2l4-1.6c0,0,0.1,0,0.1,0c0.1-0.1,0.1-0.2,0.1-0.3
	c0-0.1-0.1-0.3-0.1-0.3C53.5,241.2,53.4,241.2,53.3,241.2z M76.4,256c0-0.1-0.1-0.1-0.2-0.2l-1.6-0.7c-0.2-0.1-0.3,0-0.4,0.2
	c0,0.1-0.1,0.2,0,0.3c0,0.1,0.1,0.2,0.2,0.2l1.2,0.5l-1.8,4c-0.4,0.9-1,1.1-1.8,0.8c-0.4-0.2-0.6-0.4-0.7-0.7
	c-0.1-0.3-0.1-0.6,0-0.9c0.1-0.2,0-0.3-0.3-0.4c-0.1-0.1-0.2-0.1-0.3,0c-0.1,0-0.2,0.1-0.2,0.2c-0.2,0.5-0.2,1,0,1.5
	c0.2,0.5,0.6,0.8,1.2,1.1c0.6,0.3,1.1,0.3,1.6,0.1c0.5-0.2,0.9-0.6,1.2-1.3l2-4.5C76.5,256.2,76.5,256.1,76.4,256z M79.1,260.5
	c0.1,0.5,0.1,0.9-0.1,1.5l-1,2.3c0,0.1-0.1,0.1-0.2,0.1c-0.1,0-0.2,0-0.3,0c-0.1,0-0.2-0.1-0.2-0.2c0-0.1,0-0.2,0-0.2l0.2-0.4
	c-0.6,0.3-1.2,0.3-1.7,0.1c-0.4-0.2-0.6-0.4-0.8-0.7c-0.1-0.3-0.1-0.7,0.1-1c0.2-0.5,0.5-0.7,1-0.8c0.4,0,1,0.1,1.7,0.4l0.4,0.2
	l0.1-0.2c0.1-0.3,0.2-0.6,0.1-0.9c-0.1-0.3-0.3-0.5-0.6-0.7c-0.3-0.1-0.5-0.2-0.7-0.2c-0.2,0-0.4,0-0.4,0c-0.1,0-0.1-0.1-0.2-0.2
	c0-0.1,0-0.2,0-0.3c0.1-0.1,0.3-0.2,0.6-0.2c0.3,0,0.6,0.1,1,0.2C78.6,259.6,78.9,260,79.1,260.5z M77.9,262.3l-0.3-0.1
	c-0.2-0.1-0.3-0.1-0.5-0.2c-0.1,0-0.3-0.1-0.4-0.1c-0.2,0-0.3,0-0.4,0c-0.1,0-0.2,0.1-0.3,0.1c-0.1,0.1-0.2,0.2-0.2,0.3
	c-0.1,0.2-0.1,0.4,0,0.6c0.1,0.2,0.2,0.3,0.4,0.4c0.3,0.1,0.6,0.1,0.9,0c0.3-0.1,0.5-0.3,0.6-0.5L77.9,262.3z M83.9,262.4
	c0-0.1,0-0.2-0.1-0.3c-0.1-0.1-0.2-0.2-0.3-0.2c-0.1-0.1-0.2,0-0.3,0.1l-2.5,2.6l0.2-3.6c0-0.1-0.1-0.2-0.2-0.3
	c-0.1,0-0.2-0.1-0.4,0c-0.1,0-0.2,0.1-0.3,0.2c0,0,0,0.1,0,0.2l-0.2,4.5c0,0.1,0.1,0.2,0.3,0.3c0.2,0.1,0.3,0.1,0.4,0l3.2-3.1
	C83.8,262.5,83.9,262.5,83.9,262.4z M87,265.5l-1,2.3c0,0.1-0.1,0.1-0.2,0.1c-0.1,0-0.2,0-0.3,0c-0.1,0-0.2-0.1-0.2-0.2
	c0-0.1,0-0.2,0-0.2l0.2-0.4c-0.6,0.3-1.2,0.3-1.7,0.1c-0.4-0.2-0.6-0.4-0.8-0.7c-0.1-0.3-0.1-0.7,0.1-1c0.2-0.5,0.5-0.7,1-0.8
	c0.4,0,1,0.1,1.7,0.4l0.4,0.2l0.1-0.2c0.1-0.3,0.2-0.6,0.1-0.9c-0.1-0.3-0.3-0.5-0.6-0.7c-0.3-0.1-0.5-0.2-0.7-0.2
	c-0.2,0-0.4,0-0.4,0c-0.1,0-0.1-0.1-0.2-0.2c0-0.1,0-0.2,0-0.3c0.1-0.1,0.3-0.2,0.6-0.2c0.3,0,0.6,0.1,1,0.2c0.6,0.3,1,0.6,1.1,1.1
	C87.2,264.5,87.2,265,87,265.5z M85.9,265.8l-0.3-0.1c-0.2-0.1-0.3-0.1-0.5-0.2c-0.1,0-0.3-0.1-0.4-0.1c-0.2,0-0.3,0-0.4,0
	c-0.1,0-0.2,0.1-0.3,0.1c-0.1,0.1-0.2,0.2-0.2,0.3c-0.1,0.2-0.1,0.4,0,0.6c0.1,0.2,0.2,0.3,0.4,0.4c0.3,0.1,0.6,0.1,0.9,0
	c0.3-0.1,0.5-0.3,0.6-0.5L85.9,265.8z M91,266.1c-0.2-0.3-0.5-0.5-0.7-0.7c-0.2-0.2-0.4-0.5-0.6-0.8c-0.1-0.3-0.1-0.5,0-0.8
	c0.1-0.3,0.4-0.5,0.7-0.6s0.6,0,1,0.2c0.3,0.1,0.6,0.3,0.8,0.6c0.2,0.2,0.3,0.3,0.3,0.4c0.1,0,0.2,0,0.3,0c0.1-0.1,0.2-0.2,0.2-0.2
	c0.1-0.2,0-0.4-0.3-0.7c-0.3-0.3-0.6-0.5-1-0.6c-0.2-0.1-0.5-0.2-0.7-0.2c-0.2,0-0.5,0-0.8,0c-0.3,0-0.5,0.1-0.7,0.3
	c-0.2,0.2-0.4,0.4-0.6,0.8c-0.2,0.4-0.2,0.8-0.1,1.1c0.1,0.4,0.3,0.7,0.5,0.9c0.2,0.3,0.5,0.5,0.7,0.7c0.2,0.2,0.4,0.5,0.5,0.8
	c0.1,0.3,0.1,0.6-0.1,1c-0.2,0.4-0.4,0.6-0.7,0.7c-0.3,0.1-0.7,0-1.1-0.1c-0.2-0.1-0.4-0.2-0.6-0.4c-0.2-0.2-0.3-0.3-0.3-0.4
	c0-0.1-0.1-0.3-0.2-0.4c-0.1-0.1-0.1-0.2-0.2-0.2c-0.1,0-0.2,0-0.3,0c-0.1,0.1-0.2,0.1-0.2,0.2c-0.1,0.2,0,0.5,0.3,0.9
	c0.3,0.4,0.7,0.7,1.2,1c0.6,0.3,1.2,0.3,1.7,0.2c0.5-0.2,0.9-0.5,1.2-1.2c0.2-0.5,0.3-0.9,0.2-1.3S91.3,266.4,91,266.1z M95.6,268.4
	c0.1,0,0.2,0,0.3,0c0.1-0.1,0.2-0.1,0.2-0.2c0.1-0.2,0-0.4-0.2-0.6s-0.5-0.5-0.9-0.6c-0.6-0.3-1.1-0.3-1.6-0.1s-0.8,0.5-1,1.1
	l-0.4,0.9c-0.2,0.5-0.3,1-0.1,1.5c0.2,0.5,0.5,0.8,1.1,1.1c0.4,0.2,0.8,0.3,1.1,0.2c0.3,0,0.5-0.1,0.6-0.3c0-0.1,0-0.2,0-0.3
	c0-0.1-0.1-0.2-0.2-0.2c0,0-0.2,0-0.4,0c-0.2,0-0.5,0-0.7-0.1c-0.7-0.3-1-0.9-0.6-1.6l0.4-0.9c0.2-0.3,0.4-0.6,0.6-0.7
	c0.3-0.1,0.6-0.1,1,0.1c0.2,0.1,0.4,0.3,0.6,0.4C95.5,268.3,95.5,268.4,95.6,268.4z M99.1,269.6c0.1,0,0.2,0,0.3,0
	c0.1,0,0.2-0.1,0.2-0.2c0-0.1,0-0.2,0-0.3c0-0.1-0.1-0.2-0.2-0.2l-0.3-0.1c-0.3-0.1-0.5-0.1-0.8-0.1c-0.3,0.1-0.5,0.2-0.7,0.3
	l0.2-0.4c0-0.1,0-0.2,0-0.2c0-0.1-0.1-0.1-0.2-0.2c-0.1,0-0.2-0.1-0.3,0c-0.1,0-0.2,0.1-0.2,0.1l-1.7,3.8c0,0.1,0,0.2,0,0.2
	c0,0.1,0.1,0.2,0.2,0.2s0.2,0.1,0.3,0c0.1,0,0.2-0.1,0.2-0.1l0.9-2.1c0.2-0.4,0.4-0.7,0.8-0.8c0.3-0.1,0.7-0.1,1,0L99.1,269.6z
	 M100.9,269.7c-0.1-0.1-0.1-0.1-0.2-0.2c-0.1,0-0.2-0.1-0.3,0c-0.1,0-0.2,0.1-0.2,0.1l-1.7,3.8c0,0.1,0,0.2,0,0.2
	c0,0.1,0.1,0.2,0.2,0.2s0.2,0.1,0.3,0c0.1,0,0.2-0.1,0.2-0.1l1.7-3.8C100.9,269.9,100.9,269.8,100.9,269.7z M101.2,268.3
	c0.1,0.1,0.3,0.1,0.4,0c0.1,0,0.2-0.1,0.3-0.2c0.1-0.1,0.1-0.2,0-0.4c-0.1-0.1-0.1-0.2-0.3-0.3c-0.1-0.1-0.3-0.1-0.4,0
	c-0.1,0-0.2,0.1-0.3,0.2c-0.1,0.1-0.1,0.2,0,0.4C100.9,268.2,101,268.3,101.2,268.3z M104.9,273.5l-0.4,0.9c-0.2,0.5-0.6,0.8-1,1
	c-0.5,0.2-0.9,0.2-1.4,0c-0.3-0.1-0.5-0.3-0.6-0.5c-0.2-0.2-0.2-0.5-0.3-0.7l-1.1,2.5c0,0.1-0.1,0.1-0.2,0.1c-0.1,0-0.2,0-0.3,0
	s-0.2-0.1-0.2-0.2c0-0.1-0.1-0.2,0-0.2l2.6-5.9c0-0.1,0.1-0.1,0.2-0.1c0.1,0,0.2,0,0.3,0s0.2,0.1,0.2,0.2c0,0.1,0,0.2,0,0.2
	l-0.2,0.4c0.2-0.1,0.4-0.2,0.7-0.3c0.3,0,0.6,0,0.8,0.1c0.5,0.2,0.8,0.5,0.9,1C105.2,272.5,105.1,273,104.9,273.5z M104.2,272.3
	c-0.1-0.3-0.3-0.5-0.6-0.7c-0.3-0.1-0.5-0.1-0.8,0c-0.3,0.1-0.5,0.3-0.6,0.6l-0.5,1.2c-0.1,0.2,0,0.4,0.1,0.7
	c0.1,0.3,0.3,0.5,0.6,0.6c0.3,0.1,0.6,0.1,0.9,0c0.3-0.1,0.5-0.3,0.6-0.6l0.4-0.9C104.3,272.9,104.3,272.6,104.2,272.3z
	 M107.3,272.5l0.8-1.8c0-0.1,0-0.2,0-0.2c-0.1-0.1-0.1-0.2-0.2-0.2c-0.1,0-0.2-0.1-0.3,0c-0.1,0-0.2,0.1-0.2,0.1l-2.1,4.7
	c-0.4,0.9-0.1,1.6,0.9,2.1l0.3,0.1c0.1,0,0.2,0,0.3,0c0.1,0,0.2-0.1,0.2-0.2c0-0.1,0-0.2,0-0.3c0-0.1-0.1-0.2-0.2-0.2l-0.3-0.1
	c-0.3-0.1-0.5-0.3-0.5-0.4c-0.1-0.2,0-0.4,0.1-0.6l1-2.3l1.2,0.5c0.1,0,0.1,0,0.2,0c0.1,0,0.1-0.1,0.2-0.2s0-0.2,0-0.2
	c0-0.1-0.1-0.1-0.1-0.2L107.3,272.5z M126.5,274.5c0.8,0,1.3,0.4,1.3,1.1c0,0.2,0.2,0.3,0.4,0.3c0.1,0,0.3,0,0.3-0.1
	c0.1-0.1,0.1-0.2,0.1-0.4c0-0.5-0.2-0.9-0.6-1.2c-0.4-0.3-0.9-0.5-1.6-0.5c-0.6,0-1.2,0.2-1.6,0.5c-0.4,0.4-0.6,0.9-0.6,1.6v3
	c0,0.7,0.2,1.3,0.6,1.6c0.4,0.4,0.9,0.5,1.5,0.5c0.7,0,1.2-0.2,1.6-0.5c0.4-0.3,0.6-0.8,0.6-1.3c0-0.2,0-0.3-0.1-0.4
	c-0.1-0.1-0.2-0.1-0.3-0.1c-0.3,0-0.4,0.1-0.4,0.3c0,0.2,0,0.3-0.1,0.4c0,0.1-0.1,0.2-0.2,0.4c-0.1,0.1-0.2,0.2-0.4,0.3
	c-0.2,0.1-0.4,0.1-0.7,0.1c-0.9,0-1.4-0.5-1.4-1.4v-3C125.1,275,125.6,274.5,126.5,274.5z M132.4,277.1c-0.3-0.1-0.6-0.3-1-0.4
	c-0.3-0.1-0.6-0.3-0.8-0.5s-0.3-0.4-0.3-0.7c0-0.4,0.1-0.6,0.4-0.8s0.6-0.2,1-0.2c0.3,0,0.6,0.1,0.9,0.2c0.3,0.1,0.4,0.2,0.5,0.2
	c0.1,0,0.2-0.1,0.3-0.2c0.1-0.1,0.1-0.2,0.1-0.3c0-0.2-0.2-0.4-0.6-0.5c-0.4-0.1-0.8-0.2-1.2-0.2c-0.3,0-0.5,0-0.8,0.1
	c-0.2,0.1-0.5,0.2-0.7,0.3c-0.2,0.1-0.4,0.3-0.5,0.6s-0.2,0.6-0.2,0.9c0,0.4,0.1,0.8,0.3,1.1c0.2,0.3,0.5,0.5,0.8,0.6
	c0.3,0.1,0.6,0.3,1,0.4c0.3,0.1,0.6,0.3,0.8,0.5s0.3,0.5,0.3,0.9c0,0.4-0.1,0.7-0.4,0.9c-0.2,0.2-0.6,0.3-1,0.3
	c-0.3,0-0.5,0-0.7-0.1c-0.2-0.1-0.4-0.2-0.5-0.3c-0.1-0.1-0.2-0.2-0.3-0.3c-0.1-0.1-0.2-0.1-0.2-0.1c-0.1,0-0.2,0.1-0.3,0.2
	c-0.1,0.1-0.1,0.2-0.1,0.3c0,0.2,0.2,0.5,0.6,0.7c0.4,0.2,0.9,0.4,1.5,0.4c0.7,0,1.2-0.2,1.6-0.5s0.6-0.9,0.6-1.6
	c0-0.5-0.1-0.9-0.3-1.2S132.8,277.3,132.4,277.1z M137.5,277.1c-0.3-0.1-0.6-0.3-1-0.4c-0.3-0.1-0.6-0.3-0.8-0.5s-0.3-0.4-0.3-0.7
	c0-0.4,0.1-0.6,0.4-0.8s0.6-0.2,1-0.2c0.3,0,0.6,0.1,0.9,0.2c0.3,0.1,0.4,0.2,0.5,0.2c0.1,0,0.2-0.1,0.3-0.2
	c0.1-0.1,0.1-0.2,0.1-0.3c0-0.2-0.2-0.4-0.6-0.5c-0.4-0.1-0.8-0.2-1.2-0.2c-0.3,0-0.5,0-0.8,0.1c-0.2,0.1-0.5,0.2-0.7,0.3
	c-0.2,0.1-0.4,0.3-0.5,0.6s-0.2,0.6-0.2,0.9c0,0.4,0.1,0.8,0.3,1.1c0.2,0.3,0.5,0.5,0.8,0.6c0.3,0.1,0.6,0.3,1,0.4
	c0.3,0.1,0.6,0.3,0.8,0.5s0.3,0.5,0.3,0.9c0,0.4-0.1,0.7-0.4,0.9c-0.2,0.2-0.6,0.3-1,0.3c-0.3,0-0.5,0-0.7-0.1
	c-0.2-0.1-0.4-0.2-0.5-0.3c-0.1-0.1-0.2-0.2-0.3-0.3c-0.1-0.1-0.2-0.1-0.2-0.1c-0.1,0-0.2,0.1-0.3,0.2c-0.1,0.1-0.1,0.2-0.1,0.3
	c0,0.2,0.2,0.5,0.6,0.7c0.4,0.2,0.9,0.4,1.5,0.4c0.7,0,1.2-0.2,1.6-0.5s0.6-0.9,0.6-1.6c0-0.5-0.1-0.9-0.3-1.2
	S137.8,277.3,137.5,277.1z M143.2,273.3c-0.1,0-0.2,0.1-0.2,0.2l-3.8,7.4c0,0,0,0.1,0,0.1c0,0.1,0,0.1,0.1,0.2
	c0.1,0.1,0.1,0.1,0.2,0.1c0.1,0,0.2-0.1,0.3-0.2l3.7-7.4c0,0,0-0.1,0-0.1c0-0.1,0-0.2-0.1-0.2C143.4,273.4,143.3,273.3,143.2,273.3z
	 M147.2,277.1c-0.3-0.1-0.6-0.3-1-0.4c-0.3-0.1-0.6-0.3-0.8-0.5s-0.3-0.4-0.3-0.7c0-0.4,0.1-0.6,0.4-0.8s0.6-0.2,1-0.2
	c0.3,0,0.6,0.1,0.9,0.2c0.3,0.1,0.4,0.2,0.5,0.2c0.1,0,0.2-0.1,0.3-0.2c0.1-0.1,0.1-0.2,0.1-0.3c0-0.2-0.2-0.4-0.6-0.5
	c-0.4-0.1-0.8-0.2-1.2-0.2c-0.3,0-0.5,0-0.8,0.1c-0.2,0.1-0.5,0.2-0.7,0.3c-0.2,0.1-0.4,0.3-0.5,0.6s-0.2,0.6-0.2,0.9
	c0,0.4,0.1,0.8,0.3,1.1c0.2,0.3,0.5,0.5,0.8,0.6c0.3,0.1,0.6,0.3,1,0.4c0.3,0.1,0.6,0.3,0.8,0.5s0.3,0.5,0.3,0.9
	c0,0.4-0.1,0.7-0.4,0.9c-0.2,0.2-0.6,0.3-1,0.3c-0.3,0-0.5,0-0.7-0.1c-0.2-0.1-0.4-0.2-0.5-0.3c-0.1-0.1-0.2-0.2-0.3-0.3
	c-0.1-0.1-0.2-0.1-0.2-0.1c-0.1,0-0.2,0.1-0.3,0.2c-0.1,0.1-0.1,0.2-0.1,0.3c0,0.2,0.2,0.5,0.6,0.7c0.4,0.2,0.9,0.4,1.5,0.4
	c0.7,0,1.2-0.2,1.6-0.5s0.6-0.9,0.6-1.6c0-0.5-0.1-0.9-0.3-1.2S147.6,277.3,147.2,277.1z M154.1,280.7
	C154.1,280.7,154.1,280.7,154.1,280.7c0,0.1,0,0.2-0.2,0.3c-0.1,0.1-0.2,0.1-0.4,0.1c-0.2,0-0.3-0.1-0.3-0.2l-0.4-1.5h-2.6l-0.4,1.5
	c0,0.1-0.1,0.2-0.3,0.2c-0.1,0-0.2,0-0.3-0.1c-0.1-0.1-0.2-0.1-0.2-0.2c0,0,0,0,0-0.1l2-6.6c0.1-0.2,0.2-0.3,0.5-0.3
	c0.3,0,0.5,0.1,0.5,0.3L154.1,280.7C154.1,280.7,154.1,280.7,154.1,280.7z M152.6,278.7l-1.1-3.8l-1.1,3.8H152.6z M157.8,277.1
	c-0.3-0.1-0.6-0.3-1-0.4c-0.3-0.1-0.6-0.3-0.8-0.5s-0.3-0.4-0.3-0.7c0-0.4,0.1-0.6,0.4-0.8s0.6-0.2,1-0.2c0.3,0,0.6,0.1,0.9,0.2
	c0.3,0.1,0.4,0.2,0.5,0.2c0.1,0,0.2-0.1,0.3-0.2c0.1-0.1,0.1-0.2,0.1-0.3c0-0.2-0.2-0.4-0.6-0.5c-0.4-0.1-0.8-0.2-1.2-0.2
	c-0.3,0-0.5,0-0.8,0.1c-0.2,0.1-0.5,0.2-0.7,0.3c-0.2,0.1-0.4,0.3-0.5,0.6s-0.2,0.6-0.2,0.9c0,0.4,0.1,0.8,0.3,1.1
	c0.2,0.3,0.5,0.5,0.8,0.6c0.3,0.1,0.6,0.3,1,0.4c0.3,0.1,0.6,0.3,0.8,0.5s0.3,0.5,0.3,0.9c0,0.4-0.1,0.7-0.4,0.9
	c-0.2,0.2-0.6,0.3-1,0.3c-0.3,0-0.5,0-0.7-0.1c-0.2-0.1-0.4-0.2-0.5-0.3c-0.1-0.1-0.2-0.2-0.3-0.3c-0.1-0.1-0.2-0.1-0.2-0.1
	c-0.1,0-0.2,0.1-0.3,0.2c-0.1,0.1-0.1,0.2-0.1,0.3c0,0.2,0.2,0.5,0.6,0.7c0.4,0.2,0.9,0.4,1.5,0.4c0.7,0,1.2-0.2,1.6-0.5
	s0.6-0.9,0.6-1.6c0-0.5-0.1-0.9-0.3-1.2S158.1,277.3,157.8,277.1z M162.8,277.1c-0.3-0.1-0.6-0.3-1-0.4c-0.3-0.1-0.6-0.3-0.8-0.5
	s-0.3-0.4-0.3-0.7c0-0.4,0.1-0.6,0.4-0.8s0.6-0.2,1-0.2c0.3,0,0.6,0.1,0.9,0.2c0.3,0.1,0.4,0.2,0.5,0.2c0.1,0,0.2-0.1,0.3-0.2
	c0.1-0.1,0.1-0.2,0.1-0.3c0-0.2-0.2-0.4-0.6-0.5c-0.4-0.1-0.8-0.2-1.2-0.2c-0.3,0-0.5,0-0.8,0.1c-0.2,0.1-0.5,0.2-0.7,0.3
	c-0.2,0.1-0.4,0.3-0.5,0.6s-0.2,0.6-0.2,0.9c0,0.4,0.1,0.8,0.3,1.1c0.2,0.3,0.5,0.5,0.8,0.6c0.3,0.1,0.6,0.3,1,0.4
	c0.3,0.1,0.6,0.3,0.8,0.5s0.3,0.5,0.3,0.9c0,0.4-0.1,0.7-0.4,0.9c-0.2,0.2-0.6,0.3-1,0.3c-0.3,0-0.5,0-0.7-0.1
	c-0.2-0.1-0.4-0.2-0.5-0.3c-0.1-0.1-0.2-0.2-0.3-0.3c-0.1-0.1-0.2-0.1-0.2-0.1c-0.1,0-0.2,0.1-0.3,0.2c-0.1,0.1-0.1,0.2-0.1,0.3
	c0,0.2,0.2,0.5,0.6,0.7c0.4,0.2,0.9,0.4,1.5,0.4c0.7,0,1.2-0.2,1.6-0.5s0.6-0.9,0.6-1.6c0-0.5-0.1-0.9-0.3-1.2
	S163.1,277.3,162.8,277.1z M191.4,265.2c0-0.1-0.1-0.1-0.2-0.1c-0.1,0-0.2,0-0.3,0.1c-0.1,0-0.2,0.1-0.2,0.2c-0.1,0.1-0.1,0.2,0,0.2
	l1.2,2.6l-2.5,1.1l-1.2-2.6c0-0.1-0.1-0.1-0.2-0.1c-0.1,0-0.2,0-0.3,0.1c-0.1,0-0.2,0.1-0.2,0.2c-0.1,0.1-0.1,0.2,0,0.2l2.7,6.1
	c0,0.1,0.1,0.1,0.2,0.2c0.1,0,0.2,0,0.3,0c0.1,0,0.2-0.1,0.2-0.2c0.1-0.1,0.1-0.2,0-0.3l-1.3-2.9l2.5-1.1l1.3,2.9
	c0,0.1,0.1,0.1,0.2,0.2s0.2,0,0.3,0c0.1,0,0.2-0.1,0.2-0.2c0.1-0.1,0.1-0.2,0-0.3L191.4,265.2z M194.9,264.2l1.5-0.7
	c0.1,0,0.1-0.1,0.2-0.2c0-0.1,0-0.2,0-0.3c0-0.1-0.1-0.2-0.2-0.2c-0.1,0-0.2,0-0.2,0l-3.7,1.7c-0.1,0-0.1,0.1-0.2,0.2
	c0,0.1,0,0.2,0,0.3c0,0.1,0.1,0.2,0.2,0.2c0.1,0,0.2,0.1,0.2,0l1.5-0.7l2.5,5.7c0,0.1,0.1,0.1,0.2,0.2c0.1,0,0.2,0,0.3,0
	c0.1,0,0.2-0.1,0.2-0.2c0.1-0.1,0.1-0.2,0-0.3L194.9,264.2z M202.1,260.6c-0.1-0.2-0.3-0.3-0.5-0.2c-0.2,0.1-0.4,0.4-0.4,0.8
	l-0.2,3.4l-2.7-2.1c-0.3-0.2-0.6-0.3-0.8-0.2c-0.3,0.1-0.3,0.3-0.2,0.5l2.7,6c0,0.1,0.1,0.1,0.2,0.2c0.1,0,0.2,0,0.3,0
	s0.2-0.1,0.2-0.2c0.1-0.1,0.1-0.2,0-0.3l-2.2-4.8l2.5,2c0.1,0.1,0.3,0.1,0.4,0.1c0.1-0.1,0.2-0.2,0.2-0.3l0.2-3.2l2.1,4.8
	c0,0.1,0.1,0.1,0.2,0.2c0.1,0,0.2,0,0.3,0c0.1,0,0.2-0.1,0.2-0.2c0.1-0.1,0.1-0.2,0-0.3L202.1,260.6z M209.4,264.2
	c-0.1-0.1-0.2-0.1-0.2,0l-2.5,1.1l-2.5-5.7c0-0.1-0.1-0.1-0.2-0.1c-0.1,0-0.2,0-0.3,0.1c-0.1,0-0.2,0.1-0.2,0.2
	c-0.1,0.1-0.1,0.2,0,0.2l2.7,6.1c0,0.1,0.1,0.1,0.2,0.2c0.1,0,0.2,0,0.3,0l2.9-1.3c0.1,0,0.1-0.1,0.1-0.2c0-0.1,0-0.2,0-0.3
	C209.6,264.3,209.5,264.2,209.4,264.2z M238.7,243.2c0.1,0.1,0.1,0.1,0.1,0.2c0,0.1-0.1,0.2-0.1,0.3c-0.1,0.1-0.2,0.1-0.3,0.2
	c-0.1,0-0.2,0-0.2-0.1l-5-4.5c-0.1-0.1-0.1-0.1-0.1-0.2c0-0.1,0-0.2,0.1-0.2l1.3-1.4c0.4-0.5,0.9-0.7,1.4-0.8
	c0.5-0.1,1.1,0.2,1.6,0.7l0.1,0.1c0.6,0.5,0.8,1,0.8,1.5c0,0.5-0.2,1-0.7,1.5l-0.9,1L238.7,243.2z M236.3,241l0.9-1
	c0.3-0.3,0.4-0.6,0.4-1c0-0.3-0.2-0.7-0.6-1l-0.1-0.1c-0.4-0.3-0.7-0.5-1-0.5c-0.3,0-0.6,0.2-0.9,0.5l-0.9,1L236.3,241z
	 M239.1,236.5c-0.1-0.1-0.1-0.1-0.2-0.1c-0.1,0-0.2,0.1-0.3,0.2c-0.1,0.1-0.1,0.2-0.1,0.3c0,0.1,0,0.2,0.1,0.2l3.1,2.8
	c0.1,0.1,0.1,0.1,0.2,0.1c0.1,0,0.2-0.1,0.3-0.2c0.1-0.1,0.1-0.2,0.1-0.3c0-0.1,0-0.2-0.1-0.2L239.1,236.5z M237.3,235.9
	c0.1,0,0.3-0.1,0.4-0.2c0.1-0.1,0.1-0.2,0.1-0.4c0-0.1-0.1-0.3-0.1-0.3c-0.1-0.1-0.2-0.1-0.3-0.1c-0.1,0-0.3,0.1-0.3,0.2
	c-0.1,0.1-0.1,0.2-0.1,0.4c0,0.1,0.1,0.2,0.1,0.3C237.1,235.9,237.2,235.9,237.3,235.9z M245.1,235.8l-2.3-0.3l-0.5-2.2
	c0-0.1,0-0.1-0.1-0.1c-0.1-0.1-0.2-0.1-0.3-0.1c-0.1,0-0.3,0.1-0.3,0.2c-0.1,0.1-0.1,0.2-0.1,0.2l0.5,2l-2-0.3c-0.1,0-0.2,0-0.2,0.1
	c-0.1,0.1-0.1,0.2-0.1,0.4c0,0.1,0,0.3,0.1,0.3c0,0,0.1,0.1,0.2,0.1l2.2,0.3l0.5,2.2c0,0.1,0,0.1,0.1,0.2c0.1,0.1,0.2,0.1,0.3,0.1
	c0.1,0,0.3-0.1,0.3-0.2c0.1-0.1,0.1-0.2,0.1-0.3l-0.5-2l2.1,0.3c0.1,0,0.2,0,0.2-0.1c0.1-0.1,0.1-0.2,0.1-0.3c0-0.1,0-0.2-0.1-0.3
	C245.2,235.8,245.2,235.8,245.1,235.8z M248.1,232.8c0.1,0.1,0.1,0.1,0.1,0.2c0,0.1-0.1,0.2-0.1,0.3c-0.1,0.1-0.2,0.1-0.2,0.1
	c-0.1,0-0.2,0-0.2-0.1l-0.3-0.3c0.1,0.7-0.1,1.2-0.4,1.6c-0.3,0.3-0.6,0.5-0.9,0.5c-0.3,0-0.7-0.1-1-0.4c-0.4-0.4-0.5-0.7-0.4-1.2
	c0.1-0.4,0.4-0.9,0.9-1.5l0.3-0.4l-0.2-0.1c-0.2-0.2-0.5-0.4-0.8-0.4c-0.3,0-0.6,0.1-0.8,0.4c-0.2,0.2-0.3,0.4-0.4,0.6
	c-0.1,0.2-0.1,0.3-0.1,0.4c-0.1,0.1-0.1,0.1-0.3,0.1c-0.1,0-0.2-0.1-0.3-0.1c-0.1-0.1-0.1-0.3,0-0.6c0.1-0.3,0.3-0.6,0.5-0.8
	c0.4-0.5,0.9-0.7,1.4-0.7s0.9,0.2,1.3,0.6L248.1,232.8z M246.8,233.3c0-0.3-0.1-0.6-0.3-0.8l-0.4-0.4l-0.2,0.3
	c-0.1,0.1-0.2,0.3-0.3,0.4c-0.1,0.1-0.2,0.2-0.2,0.4c-0.1,0.1-0.1,0.3-0.1,0.4c0,0.1,0,0.2,0,0.3c0,0.1,0.1,0.2,0.2,0.3
	c0.2,0.2,0.4,0.2,0.6,0.2c0.2,0,0.4-0.1,0.5-0.3C246.7,233.9,246.8,233.6,246.8,233.3z M250.1,230c-0.1,0-0.2,0-0.3,0.1l-0.2,0.2
	c-0.2,0.2-0.4,0.3-0.6,0.4c-0.2,0-0.4-0.1-0.6-0.3l-1.9-1.7l0.8-0.9c0-0.1,0.1-0.1,0.1-0.2s-0.1-0.1-0.1-0.2
	c-0.1-0.1-0.1-0.1-0.2-0.1c-0.1,0-0.1,0-0.2,0.1l-0.8,0.9l-1.4-1.3c-0.1-0.1-0.1-0.1-0.2,0s-0.2,0.1-0.3,0.2
	c-0.1,0.1-0.1,0.2-0.1,0.3c0,0.1,0,0.2,0.1,0.2l3.8,3.4c0.7,0.7,1.5,0.6,2.2-0.2l0.2-0.2c0.1-0.1,0.1-0.2,0.1-0.3s-0.1-0.2-0.1-0.3
	C250.3,230.1,250.2,230,250.1,230z M253.1,226.8c0.1,0.1,0.1,0.3,0,0.7c-0.1,0.3-0.3,0.7-0.6,1c-0.4,0.5-0.9,0.8-1.5,0.8
	c-0.5,0.1-1-0.1-1.5-0.5l-0.8-0.7c-0.4-0.3-0.6-0.8-0.6-1.3s0.2-1,0.5-1.4c0.3-0.4,0.8-0.6,1.3-0.7c0.5-0.1,1,0.1,1.4,0.5
	c0.1,0.1,0.2,0.3,0.3,0.4s0.1,0.2,0,0.3c0,0.1-0.1,0.2-0.1,0.3c0,0.1-0.1,0.2-0.2,0.3L250,228l0.2,0.2c0.3,0.2,0.6,0.3,0.9,0.3
	c0.3,0,0.6-0.2,0.9-0.5c0.1-0.2,0.3-0.3,0.3-0.5c0.1-0.2,0.1-0.3,0.1-0.4c0-0.1,0.1-0.2,0.1-0.2c0.1-0.1,0.1-0.1,0.3-0.1
	C252.9,226.7,253,226.7,253.1,226.8z M250.8,226.2c0.1-0.1,0.2-0.2,0.2-0.3c0-0.1,0-0.2-0.1-0.2c-0.2-0.2-0.5-0.3-0.8-0.3
	c-0.3,0-0.6,0.1-0.8,0.4c-0.2,0.2-0.3,0.5-0.3,0.8c0,0.3,0.1,0.6,0.3,0.8l0.3,0.2L250.8,226.2z M268.3,204.6c0,0.1,0,0.2,0,0.4
	c0,0.2-0.1,0.2-0.3,0.2l-1.5,0l-0.8,2.5l1.3,0.9c0.1,0.1,0.1,0.2,0.1,0.3c0,0.1-0.1,0.2-0.2,0.3s-0.2,0.1-0.3,0.1c0,0,0,0-0.1,0
	l-5.7-4c-0.2-0.1-0.2-0.3-0.1-0.6s0.2-0.4,0.4-0.4l7,0.1c0,0,0,0,0,0c0,0,0,0,0,0C268.2,204.4,268.3,204.5,268.3,204.6z
	 M265.7,205.2l-3.9-0.1l3.2,2.2L265.7,205.2z M265.1,201.7l0.4-1.3c0-0.1,0-0.1,0-0.2c0-0.1-0.1-0.1-0.2-0.1c-0.1,0-0.2,0-0.2,0
	c-0.1,0-0.1,0.1-0.2,0.2l-0.4,1.3l-1-0.3c-0.3-0.1-0.5-0.3-0.6-0.5c-0.1-0.3-0.2-0.5-0.1-0.8l0.1-0.2c0-0.1,0-0.2,0-0.3
	c0-0.1-0.1-0.1-0.2-0.2s-0.2,0-0.3,0s-0.2,0.1-0.2,0.2l-0.1,0.3c-0.1,0.5-0.1,0.9,0.1,1.4c0.2,0.4,0.6,0.7,1.1,0.9l5.2,1.7
	c0.1,0,0.2,0,0.2,0c0.1-0.1,0.1-0.1,0.2-0.2c0-0.1,0-0.2,0-0.3c0-0.1-0.1-0.2-0.2-0.2L265.1,201.7z M270,198.5c-0.1,0-0.2,0-0.3,0
	c-0.1,0-0.2,0.1-0.2,0.2l-0.1,0.3c-0.1,0.3-0.2,0.5-0.4,0.6c-0.1,0.1-0.4,0.1-0.6,0l-2.4-0.8l0.4-1.2c0-0.1,0-0.1,0-0.2
	c0-0.1-0.1-0.1-0.2-0.1c-0.1,0-0.2,0-0.2,0c-0.1,0-0.1,0.1-0.2,0.1l-0.4,1.2l-1.8-0.6c-0.1,0-0.2,0-0.2,0.1
	c-0.1,0.1-0.1,0.1-0.2,0.2c0,0.1,0,0.2,0,0.3c0,0.1,0.1,0.2,0.2,0.2l4.9,1.6c1,0.3,1.6-0.1,1.9-1.1l0.1-0.3c0-0.1,0-0.2,0-0.3
	S270.1,198.5,270,198.5z M271.4,194.9c0.1,0.3,0,0.7-0.1,1.1c-0.2,0.6-0.5,1.1-1,1.4c-0.5,0.3-1,0.3-1.5,0.2l-1-0.3
	c-0.5-0.2-0.8-0.5-1.1-1c-0.2-0.5-0.3-1-0.1-1.5c0.2-0.5,0.5-0.9,0.9-1.1c0.4-0.3,0.9-0.3,1.4-0.1c0.2,0.1,0.3,0.1,0.4,0.2
	c0.1,0.1,0.2,0.2,0.2,0.3c0,0.1,0,0.2,0,0.3c0,0.1,0,0.2-0.1,0.3l-0.7,2.1l0.3,0.1c0.3,0.1,0.7,0.1,1-0.1c0.3-0.2,0.5-0.5,0.6-0.9
	c0.1-0.2,0.1-0.4,0.1-0.6c0-0.2,0-0.3-0.1-0.4c0-0.1,0-0.2,0-0.3c0-0.1,0.1-0.2,0.2-0.2c0.1,0,0.2,0,0.3,0
	C271.3,194.3,271.4,194.5,271.4,194.9z M268.2,196.5l0.6-1.8c0.1-0.2,0.1-0.3,0-0.4c0-0.1-0.1-0.1-0.2-0.2c-0.3-0.1-0.6-0.1-0.9,0.1
	c-0.3,0.1-0.5,0.4-0.6,0.7c-0.1,0.3-0.1,0.6,0.1,0.9c0.1,0.3,0.3,0.5,0.6,0.6L268.2,196.5z M272,192.6l-2.2-0.7
	c-0.4-0.1-0.7-0.4-0.9-0.7c-0.2-0.3-0.2-0.6-0.1-1l0.1-0.3c0-0.1,0-0.2,0-0.2c-0.1-0.1-0.1-0.1-0.2-0.2c-0.1,0-0.2,0-0.3,0
	c-0.1,0-0.2,0.1-0.2,0.2l-0.1,0.3c-0.1,0.3-0.1,0.5,0,0.8c0.1,0.3,0.2,0.5,0.4,0.7l-0.5-0.1c-0.1,0-0.2,0-0.2,0
	c-0.1,0.1-0.1,0.1-0.2,0.2c0,0.1,0,0.2,0,0.3c0,0.1,0.1,0.1,0.2,0.2l3.9,1.3c0.1,0,0.2,0,0.2,0c0.1-0.1,0.1-0.1,0.2-0.2
	c0-0.1,0-0.2,0-0.3C272.1,192.7,272.1,192.6,272,192.6z M274.7,184.1c-0.1,0-0.2,0-0.3,0c-0.1,0-0.1,0.1-0.2,0.2l-1,2.9l-2.4-0.8
	l0.5-1.5c0-0.1,0-0.2,0-0.2c-0.1-0.1-0.1-0.1-0.2-0.1c-0.1,0-0.2,0-0.3,0c-0.1,0-0.1,0.1-0.2,0.2l-0.5,1.5l-2.4-0.8l1-2.9
	c0-0.1,0-0.2,0-0.2c-0.1-0.1-0.1-0.1-0.2-0.2c-0.1,0-0.2,0-0.3,0c-0.1,0-0.1,0.1-0.2,0.2l-1.1,3.4c0,0.1,0,0.2,0,0.3
	c0,0.1,0.1,0.1,0.2,0.2l6.4,2.1c0.1,0,0.2,0,0.2,0c0.1-0.1,0.1-0.1,0.2-0.2l1.1-3.4c0-0.1,0-0.2,0-0.2
	C274.9,184.1,274.8,184.1,274.7,184.1z M271.7,181.4l0.4-1.3c0-0.1,0-0.1,0-0.2c0-0.1-0.1-0.1-0.2-0.1s-0.2,0-0.2,0
	c-0.1,0-0.1,0.1-0.2,0.1l-0.4,1.3l-1-0.3c-0.3-0.1-0.5-0.3-0.6-0.5c-0.1-0.3-0.2-0.5-0.1-0.8l0.1-0.2c0-0.1,0-0.2,0-0.3
	c0-0.1-0.1-0.1-0.2-0.2c-0.1,0-0.2,0-0.3,0c-0.1,0-0.2,0.1-0.2,0.2l-0.1,0.3c-0.1,0.5-0.1,0.9,0.1,1.4c0.2,0.4,0.6,0.7,1.1,0.9
	l5.2,1.7c0.1,0,0.2,0,0.2,0c0.1-0.1,0.1-0.1,0.2-0.2c0-0.1,0-0.2,0-0.3c0-0.1-0.1-0.2-0.2-0.2L271.7,181.4z M272.6,178.4l0.4-1.3
	c0-0.1,0-0.1,0-0.2c0-0.1-0.1-0.1-0.2-0.1s-0.2,0-0.2,0c-0.1,0-0.1,0.1-0.2,0.1l-0.4,1.3l-1-0.3c-0.3-0.1-0.5-0.3-0.6-0.5
	c-0.1-0.3-0.2-0.5-0.1-0.8l0.1-0.2c0-0.1,0-0.2,0-0.3c-0.1-0.1-0.1-0.1-0.2-0.2c-0.1,0-0.2,0-0.3,0c-0.1,0-0.2,0.1-0.2,0.2l-0.1,0.3
	c-0.1,0.5-0.1,0.9,0.1,1.4c0.2,0.4,0.6,0.7,1.1,0.9l5.2,1.7c0.1,0,0.2,0,0.2,0c0.1-0.1,0.1-0.1,0.2-0.2c0-0.1,0-0.2,0-0.3
	c0-0.1-0.1-0.2-0.2-0.2L272.6,178.4z M278,174.5c0.1,0.3,0,0.7-0.1,1.1c-0.2,0.6-0.5,1.1-1,1.4c-0.5,0.3-1,0.3-1.5,0.2l-1-0.3
	c-0.5-0.2-0.8-0.5-1.1-1c-0.2-0.5-0.3-1-0.1-1.5c0.2-0.5,0.5-0.9,0.9-1.1c0.4-0.3,0.9-0.3,1.4-0.1c0.2,0.1,0.3,0.1,0.4,0.2
	c0.1,0.1,0.2,0.2,0.2,0.3c0,0.1,0,0.2,0,0.3c0,0.1,0,0.2-0.1,0.3l-0.7,2.1l0.3,0.1c0.3,0.1,0.7,0.1,1-0.1s0.5-0.5,0.6-0.9
	c0.1-0.2,0.1-0.4,0.1-0.6c0-0.2,0-0.3-0.1-0.4c0-0.1,0-0.2,0-0.3c0-0.1,0.1-0.2,0.2-0.2c0.1,0,0.2,0,0.3,0
	C277.9,174,278,174.2,278,174.5z M274.8,176.1l0.6-1.8c0.1-0.2,0.1-0.3,0-0.4c0-0.1-0.1-0.1-0.2-0.2c-0.3-0.1-0.6-0.1-0.9,0.1
	s-0.5,0.4-0.6,0.7c-0.1,0.3-0.1,0.6,0.1,0.9c0.1,0.3,0.3,0.5,0.6,0.6L274.8,176.1z M279.1,169.8c-0.1,0-0.2,0-0.3,0
	c-0.1,0-0.2,0.1-0.2,0.2c0,0,0,0.2,0.1,0.4c0,0.2,0,0.5-0.1,0.7c-0.3,0.8-0.8,1-1.5,0.8l-0.9-0.3c-0.4-0.1-0.6-0.3-0.7-0.6
	c-0.1-0.3-0.1-0.6,0-1c0.1-0.3,0.2-0.5,0.4-0.6c0.2-0.2,0.3-0.2,0.3-0.3c0-0.1,0-0.2-0.1-0.3c-0.1-0.1-0.1-0.2-0.2-0.2
	c-0.2-0.1-0.4,0-0.6,0.3c-0.2,0.2-0.4,0.5-0.5,0.9c-0.2,0.6-0.2,1.1,0.1,1.6c0.2,0.4,0.6,0.7,1.2,0.9l1,0.3c0.6,0.2,1,0.2,1.5,0
	c0.4-0.2,0.8-0.6,1-1.3c0.1-0.4,0.2-0.8,0.1-1.1C279.3,170,279.2,169.8,279.1,169.8z M280.3,166.9c-0.1,0-0.2,0-0.3,0
	c-0.1,0-0.2,0.1-0.2,0.2l-0.1,0.3c-0.1,0.3-0.2,0.5-0.4,0.6c-0.1,0.1-0.4,0.1-0.6,0l-2.4-0.8l0.4-1.2c0-0.1,0-0.1,0-0.2
	c0-0.1-0.1-0.1-0.2-0.1s-0.2,0-0.2,0c-0.1,0-0.1,0.1-0.2,0.1l-0.4,1.2l-1.8-0.6c-0.1,0-0.2,0-0.2,0.1c-0.1,0.1-0.1,0.1-0.2,0.2
	c0,0.1,0,0.2,0,0.3c0,0.1,0.1,0.2,0.2,0.2l4.9,1.6c1,0.3,1.6-0.1,1.9-1.1l0.1-0.3c0-0.1,0-0.2,0-0.3
	C280.5,167,280.4,166.9,280.3,166.9z M280.6,163c-0.3-0.1-0.6-0.1-0.9,0c-0.3,0.1-0.5,0.2-0.6,0.4c-0.2,0.2-0.3,0.4-0.4,0.6
	c-0.1,0.2-0.3,0.4-0.4,0.5c-0.2,0.1-0.3,0.2-0.5,0.1c-0.2-0.1-0.3-0.2-0.4-0.4s-0.1-0.4,0-0.7c0.1-0.2,0.2-0.4,0.4-0.6
	c0.2-0.2,0.3-0.3,0.3-0.3c0-0.1,0-0.2-0.1-0.3c-0.1-0.1-0.2-0.1-0.2-0.2c-0.1,0-0.3,0.1-0.5,0.3c-0.2,0.2-0.3,0.5-0.5,0.9
	c-0.2,0.5-0.2,1,0,1.3c0.2,0.3,0.4,0.6,0.8,0.7c0.3,0.1,0.6,0.1,0.8,0c0.2-0.1,0.4-0.3,0.6-0.5c0.2-0.2,0.3-0.4,0.4-0.6
	c0.1-0.2,0.3-0.4,0.5-0.5c0.2-0.1,0.4-0.1,0.6-0.1c0.2,0.1,0.3,0.2,0.4,0.4s0.1,0.4-0.1,0.7c-0.1,0.2-0.2,0.4-0.3,0.6
	c-0.1,0.2-0.3,0.3-0.4,0.3c-0.1,0.1-0.2,0.1-0.2,0.2c0,0.1,0,0.2,0.1,0.2c0.1,0.1,0.1,0.1,0.2,0.2c0.2,0.1,0.4,0,0.6-0.3
	c0.3-0.3,0.5-0.6,0.6-1c0.2-0.5,0.2-0.9,0-1.3C281.3,163.3,281,163.1,280.6,163z M281.8,144.6c-0.1-0.1-0.1-0.1-0.2-0.1l-6.7,0.7
	c-0.1,0-0.2,0.1-0.2,0.1c0,0.1-0.1,0.2,0,0.3c0,0.1,0,0.2,0.1,0.3c0.1,0.1,0.1,0.1,0.2,0.1l6.7-0.7c0.1,0,0.2-0.1,0.2-0.1
	c0-0.1,0.1-0.2,0-0.3C281.9,144.8,281.9,144.7,281.8,144.6z M277.1,143.1c0,0.1-0.1,0.2-0.1,0.3c0,0.1,0,0.2,0.1,0.3
	c0.1,0.1,0.1,0.1,0.2,0.1l4.1-0.4c0.1,0,0.1-0.1,0.2-0.1c0.1-0.1,0.1-0.2,0.1-0.3c0-0.1-0.1-0.2-0.1-0.3c-0.1-0.1-0.1-0.1-0.2-0.1
	l-2.6,0.3c-0.3,0-0.6,0-0.9-0.2c-0.2-0.2-0.4-0.4-0.4-0.7c0-0.3,0.1-0.6,0.3-0.8c0.2-0.3,0.5-0.4,0.8-0.4l2.6-0.3
	c0.1,0,0.2-0.1,0.2-0.1c0-0.1,0.1-0.2,0-0.3c0-0.1,0-0.2-0.1-0.3c-0.1-0.1-0.1-0.1-0.2-0.1l-2.6,0.3c-0.5,0.1-1,0.3-1.3,0.7
	c-0.3,0.4-0.5,0.8-0.4,1.3c0,0.3,0.1,0.6,0.3,0.8c0.2,0.2,0.4,0.4,0.6,0.5l-0.4,0C277.2,142.9,277.1,143,277.1,143.1z M273.7,136.8
	c-0.1-0.6,0.1-1.2,0.4-1.6c0.3-0.4,0.8-0.7,1.6-0.8l2.9-0.3c0.7-0.1,1.3,0.1,1.7,0.4c0.4,0.4,0.6,0.9,0.7,1.5l0.2,1.8
	c0,0.1,0,0.2-0.1,0.3c0,0.1-0.1,0.1-0.2,0.1l-6.7,0.7c-0.1,0-0.2,0-0.2-0.1s-0.1-0.2-0.1-0.3L273.7,136.8z M274.5,136.7l0.1,1.3
	l5.8-0.6l-0.1-1.3c0-0.4-0.2-0.7-0.5-0.9c-0.3-0.2-0.6-0.3-1.1-0.2l-2.9,0.3c-0.5,0-0.8,0.2-1,0.5
	C274.5,136,274.4,136.3,274.5,136.7z M275.7,131.4c-0.1-0.5,0.1-1,0.4-1.4c0.3-0.4,0.7-0.6,1.2-0.7c0.2,0,0.4,0,0.5,0
	c0.1,0,0.2,0.1,0.3,0.2c0.1,0.1,0.1,0.2,0.1,0.3c0,0.1,0,0.2,0.1,0.3l0.2,2.2l0.3,0c0.4,0,0.6-0.2,0.8-0.5c0.2-0.3,0.3-0.6,0.2-1.1
	c0-0.2-0.1-0.4-0.2-0.6c-0.1-0.2-0.2-0.3-0.2-0.4c-0.1-0.1-0.1-0.2-0.1-0.2c0-0.1,0-0.2,0.1-0.3c0.1-0.1,0.2-0.1,0.2-0.1
	c0.2,0,0.3,0.1,0.5,0.4c0.2,0.3,0.3,0.6,0.4,1.1c0.1,0.6-0.1,1.2-0.4,1.6c-0.3,0.4-0.8,0.7-1.3,0.8l-1,0.1c-0.5,0.1-1-0.1-1.4-0.4
	C276,132.4,275.7,131.9,275.7,131.4z M276.3,131.3c0,0.3,0.2,0.6,0.4,0.8c0.2,0.2,0.5,0.3,0.8,0.3l0.4,0l-0.2-1.8
	c0-0.2-0.1-0.3-0.1-0.3c0-0.1-0.1-0.1-0.3-0.1c-0.3,0-0.5,0.2-0.8,0.4C276.4,130.7,276.3,131,276.3,131.3z M275.8,128.3
	c0.3,0.2,0.6,0.3,1,0.3c0.3,0,0.5-0.1,0.7-0.3c0.2-0.2,0.3-0.4,0.3-0.6c0.1-0.2,0.1-0.5,0.1-0.7c0-0.2,0.1-0.5,0.2-0.6
	c0.1-0.2,0.3-0.3,0.5-0.3c0.2,0,0.3,0,0.5,0.2c0.1,0.1,0.2,0.4,0.3,0.7c0,0.3,0,0.5-0.1,0.7c-0.1,0.2-0.1,0.3-0.2,0.5
	c-0.1,0.1-0.1,0.2-0.1,0.2c0,0.1,0.1,0.1,0.1,0.2c0.1,0,0.2,0.1,0.3,0.1c0.2,0,0.3-0.2,0.5-0.5c0.1-0.3,0.2-0.7,0.1-1.2
	c-0.1-0.5-0.2-0.9-0.5-1.2c-0.3-0.3-0.6-0.4-1-0.3c-0.3,0-0.6,0.1-0.8,0.3c-0.2,0.2-0.3,0.4-0.4,0.7c-0.1,0.2-0.1,0.5-0.1,0.7
	c0,0.2-0.1,0.5-0.2,0.6c-0.1,0.2-0.2,0.3-0.4,0.3c-0.2,0-0.4,0-0.5-0.2c-0.2-0.1-0.3-0.4-0.3-0.7c0-0.2,0-0.5,0.1-0.7
	c0.1-0.2,0.1-0.4,0.1-0.4c0-0.1-0.1-0.2-0.2-0.2c-0.1-0.1-0.2-0.1-0.3-0.1c-0.1,0-0.2,0.2-0.3,0.5c-0.1,0.3-0.1,0.6-0.1,1
	C275.3,127.7,275.5,128.1,275.8,128.3z M273.3,125c0.1,0,0.2-0.1,0.3-0.2c0.1-0.1,0.1-0.2,0.1-0.4c0-0.1-0.1-0.3-0.2-0.3
	c-0.1-0.1-0.2-0.1-0.3-0.1c-0.1,0-0.2,0.1-0.3,0.2c-0.1,0.1-0.1,0.2-0.1,0.4c0,0.1,0.1,0.3,0.2,0.4C273,124.9,273.2,125,273.3,125z
	 M279.5,124.2c0.1,0,0.1-0.1,0.2-0.1c0.1-0.1,0.1-0.2,0.1-0.3c0-0.1-0.1-0.2-0.1-0.3c-0.1-0.1-0.1-0.1-0.2-0.1l-4.1,0.4
	c-0.1,0-0.2,0.1-0.2,0.1c0,0.1-0.1,0.2,0,0.3c0,0.1,0,0.2,0.1,0.3c0.1,0.1,0.1,0.1,0.2,0.1L279.5,124.2z M279,119.3
	c0.1-0.2,0.2-0.4,0.3-0.6c0.2-0.2,0.4-0.3,0.7-0.3c0.5,0,0.8,0.1,1.1,0.4c0.3,0.3,0.5,0.8,0.5,1.4s0,1.1-0.2,1.5
	c-0.2,0.4-0.5,0.6-0.9,0.7c-0.5,0.1-0.9-0.2-1.2-0.7c-0.1,0.3-0.3,0.5-0.6,0.6c-0.3,0-0.6-0.1-0.8-0.4c-0.3,0.4-0.7,0.6-1.2,0.7
	l-0.3,0c-0.5,0.1-0.9-0.1-1.2-0.4c-0.3-0.3-0.5-0.7-0.6-1.2c0-0.5,0-0.9,0.2-1.2c-0.4-0.2-0.7-0.4-0.7-0.6c0-0.1,0-0.2,0.1-0.3
	c0.1-0.1,0.1-0.1,0.2-0.1c0.1,0,0.2,0,0.2,0.1c0.1,0.2,0.3,0.4,0.5,0.5c0.2-0.2,0.5-0.4,0.9-0.4l0.3,0c0.5-0.1,0.9,0.1,1.2,0.4
	s0.5,0.7,0.6,1.2c0,0.3,0,0.5-0.1,0.8c0.1,0.2,0.2,0.2,0.4,0.2c0.1,0,0.2-0.1,0.3-0.3c0.1-0.2,0.1-0.4,0.1-0.6c0-0.2,0-0.5,0-0.7
	C278.9,119.8,278.9,119.5,279,119.3z M277.6,120.7c0-0.3-0.2-0.5-0.4-0.7c-0.2-0.2-0.5-0.2-0.8-0.2l-0.3,0c-0.3,0-0.6,0.1-0.7,0.3
	c-0.2,0.2-0.3,0.4-0.2,0.7c0,0.3,0.2,0.5,0.4,0.7c0.2,0.2,0.5,0.2,0.8,0.2l0.3,0c0.3,0,0.6-0.1,0.8-0.3
	C277.6,121.3,277.7,121,277.6,120.7z M279.4,121c0.2,0.5,0.5,0.7,0.9,0.7c0.3,0,0.5-0.2,0.6-0.4c0.1-0.2,0.2-0.6,0.1-0.9
	c0-0.4-0.1-0.7-0.3-0.9c-0.2-0.2-0.4-0.3-0.7-0.3c-0.1,0-0.2,0-0.3,0.1c-0.1,0-0.1,0.1-0.2,0.2c0,0.1-0.1,0.2-0.1,0.3
	c0,0.1,0,0.2,0,0.3c0,0.1,0,0.2,0,0.3c0,0.1,0,0.2,0,0.3C279.4,120.8,279.4,120.9,279.4,121z M274.4,116.8c0.2,0.2,0.4,0.4,0.6,0.5
	l-0.4,0c-0.1,0-0.1,0.1-0.2,0.1c0,0.1-0.1,0.2-0.1,0.3c0,0.1,0,0.2,0.1,0.3c0.1,0.1,0.1,0.1,0.2,0.1l4.1-0.4c0.1,0,0.1-0.1,0.2-0.1
	c0.1-0.1,0.1-0.2,0.1-0.3c0-0.1-0.1-0.2-0.1-0.3c-0.1-0.1-0.1-0.1-0.2-0.1l-2.6,0.3c-0.3,0-0.6,0-0.9-0.2c-0.2-0.2-0.4-0.4-0.4-0.7
	c0-0.3,0.1-0.6,0.3-0.8c0.2-0.2,0.5-0.4,0.8-0.4l2.6-0.3c0.1,0,0.2-0.1,0.2-0.1c0-0.1,0.1-0.2,0-0.3c0-0.1,0-0.2-0.1-0.3
	c-0.1-0.1-0.1-0.1-0.2-0.1l-2.6,0.3c-0.5,0.1-1,0.3-1.3,0.7c-0.3,0.4-0.5,0.8-0.4,1.3C274.1,116.3,274.2,116.6,274.4,116.8z
	 M269.8,93.5l2.2-1.3c0.1,0,0.2,0,0.3,0c0.1,0,0.2,0.1,0.2,0.2c0.1,0.1,0.1,0.2,0.1,0.3c0,0.1,0,0.2-0.1,0.2l-5.8,3.4
	c-0.1,0-0.1,0-0.2,0s-0.1-0.1-0.2-0.2l-0.9-1.6c-0.3-0.6-0.4-1.1-0.3-1.6c0.1-0.5,0.5-0.9,1.1-1.3l0.1,0c0.6-0.4,1.2-0.5,1.7-0.3
	c0.5,0.2,0.9,0.5,1.2,1.1L269.8,93.5z M269.2,93.9l-0.7-1.2c-0.2-0.4-0.5-0.6-0.8-0.7c-0.3-0.1-0.7,0-1.1,0.2l-0.1,0.1
	c-0.4,0.2-0.7,0.5-0.8,0.8c-0.1,0.3,0,0.7,0.2,1l0.7,1.2L269.2,93.9z M264.8,87.5c-0.2,0.5-0.1,0.9,0.1,1.4c0.2,0.3,0.4,0.5,0.6,0.6
	c0.2,0.1,0.5,0.2,0.7,0.2l-2.8,1.6c-0.1,0-0.1,0.1-0.1,0.2c0,0.1,0,0.2,0.1,0.3c0.1,0.1,0.1,0.2,0.2,0.2c0.1,0,0.2,0,0.2,0l6.1-3.5
	c0.1,0,0.1-0.1,0.1-0.2c0-0.1,0-0.2-0.1-0.3c-0.1-0.1-0.1-0.2-0.2-0.2c-0.1,0-0.2,0-0.2,0l-2.2,1.3c-0.3,0.2-0.6,0.2-0.9,0.1
	c-0.3-0.1-0.5-0.2-0.7-0.5c-0.2-0.3-0.2-0.6-0.1-0.9s0.3-0.5,0.5-0.7l2.2-1.3c0.1,0,0.1-0.1,0.1-0.2c0-0.1,0-0.2-0.1-0.3
	c-0.1-0.1-0.1-0.2-0.2-0.2c-0.1,0-0.2,0-0.3,0l-2.2,1.3C265.2,86.6,264.9,87,264.8,87.5z M264.1,81.6c0.4-0.3,0.9-0.3,1.5-0.2
	c0.5,0.1,0.9,0.4,1.2,0.9c0.3,0.5,0.3,1,0.2,1.5c-0.1,0.5-0.4,0.9-0.9,1.2l-0.9,0.5c-0.4,0.3-0.9,0.3-1.5,0.2
	c-0.5-0.1-0.9-0.4-1.2-0.9c-0.3-0.5-0.3-1-0.2-1.5c0.1-0.5,0.4-0.9,0.9-1.2L264.1,81.6z M264.5,82.3l-0.9,0.5
	c-0.3,0.1-0.4,0.4-0.5,0.7c-0.1,0.3-0.1,0.6,0.1,0.9s0.4,0.4,0.7,0.5c0.3,0.1,0.6,0,0.9-0.1l0.9-0.5c0.3-0.2,0.5-0.4,0.5-0.7
	s0.1-0.6-0.1-0.9c-0.2-0.3-0.4-0.4-0.7-0.5C265.1,82.1,264.8,82.2,264.5,82.3z M264.4,78.4l-0.2-0.3c-0.1-0.1-0.1-0.1-0.2-0.2
	c-0.1,0-0.2,0-0.3,0c-0.1,0.1-0.2,0.1-0.2,0.2c0,0.1,0,0.2,0,0.3l0.2,0.3c0.2,0.3,0.2,0.5,0.2,0.6c0,0.2-0.2,0.3-0.4,0.5l-2.2,1.3
	l-0.6-1.1c0-0.1-0.1-0.1-0.2-0.1c-0.1,0-0.2,0-0.2,0.1s-0.1,0.1-0.2,0.2c0,0.1,0,0.1,0,0.2l0.6,1.1l-1.7,1c-0.1,0-0.1,0.1-0.1,0.2
	c0,0.1,0,0.2,0.1,0.3c0.1,0.1,0.1,0.2,0.2,0.2c0.1,0,0.2,0.1,0.2,0l4.5-2.6C264.8,80.1,265,79.3,264.4,78.4z M259.9,78.9
	c-0.5-0.1-0.9-0.4-1.2-0.9s-0.3-1-0.2-1.5c0.1-0.5,0.4-0.9,0.9-1.2l0.9-0.5c0.4-0.3,0.9-0.3,1.5-0.2c0.5,0.1,0.9,0.4,1.2,0.9
	s0.3,1,0.2,1.5c-0.1,0.5-0.4,0.9-0.9,1.2l-0.9,0.5C260.9,79,260.4,79.1,259.9,78.9z M260,78.2c0.3,0.1,0.6,0,0.9-0.1l0.9-0.5
	c0.3-0.2,0.5-0.4,0.5-0.7c0.1-0.3,0.1-0.6-0.1-0.9c-0.2-0.3-0.4-0.4-0.7-0.5c-0.3-0.1-0.6,0-0.9,0.1l-0.9,0.5
	c-0.3,0.1-0.4,0.4-0.5,0.7c-0.1,0.3-0.1,0.6,0.1,0.9S259.7,78.1,260,78.2z M259,74.3c0.1-0.2,0.1-0.5,0-0.7c0-0.2-0.1-0.5-0.2-0.7
	s-0.1-0.5,0-0.7c0-0.2,0.1-0.4,0.3-0.5c0.2-0.1,0.3-0.1,0.5,0c0.2,0.1,0.4,0.2,0.5,0.5c0.1,0.2,0.2,0.4,0.2,0.6c0,0.2,0,0.4,0,0.5
	c0,0.1,0,0.2,0,0.3c0,0.1,0.1,0.1,0.2,0.1s0.2,0,0.3-0.1c0.2-0.1,0.2-0.3,0.2-0.7c0-0.4-0.1-0.7-0.4-1.1c-0.3-0.5-0.6-0.8-0.9-0.9
	c-0.4-0.1-0.7-0.1-1.1,0.1c-0.3,0.2-0.5,0.4-0.6,0.6c-0.1,0.3-0.1,0.5-0.1,0.8s0.1,0.5,0.2,0.7c0.1,0.2,0.1,0.5,0.1,0.7
	c0,0.2-0.1,0.3-0.3,0.4c-0.2,0.1-0.3,0.1-0.5,0.1c-0.2-0.1-0.4-0.2-0.5-0.5c-0.1-0.2-0.2-0.4-0.2-0.7c0-0.2-0.1-0.4-0.1-0.4
	c0-0.1-0.1-0.1-0.2-0.1s-0.2,0-0.3,0.1c-0.1,0.1-0.1,0.3-0.1,0.6c0.1,0.3,0.2,0.6,0.3,0.9c0.3,0.5,0.6,0.8,1,0.9
	c0.4,0.1,0.7,0.1,1-0.1C258.7,74.7,258.9,74.5,259,74.3z M254,68.8c-0.2,0.5-0.1,0.9,0.1,1.4c0.2,0.3,0.4,0.5,0.6,0.6
	c0.2,0.1,0.5,0.2,0.7,0.2l-2.8,1.6c-0.1,0-0.1,0.1-0.1,0.2c0,0.1,0,0.2,0.1,0.3c0.1,0.1,0.1,0.2,0.2,0.2c0.1,0,0.2,0,0.2,0l6.1-3.5
	c0.1,0,0.1-0.1,0.1-0.2c0-0.1,0-0.2-0.1-0.3c-0.1-0.1-0.1-0.2-0.2-0.2c-0.1,0-0.2,0-0.2,0l-2.2,1.3c-0.3,0.2-0.6,0.2-0.9,0.1
	c-0.3-0.1-0.5-0.2-0.7-0.5c-0.2-0.3-0.2-0.6-0.1-0.9c0.1-0.3,0.3-0.5,0.5-0.7l2.2-1.3c0.1,0,0.1-0.1,0.1-0.2c0-0.1,0-0.2-0.1-0.3
	c-0.1-0.1-0.1-0.2-0.2-0.2c-0.1,0-0.2,0-0.3,0l-2.2,1.3C254.5,68,254.2,68.3,254,68.8z M253,67c-0.5-0.1-0.9-0.4-1.2-0.9
	s-0.3-1-0.2-1.5c0.1-0.5,0.4-0.9,0.9-1.2l0.9-0.5c0.4-0.3,0.9-0.3,1.5-0.2c0.5,0.1,0.9,0.4,1.2,0.9s0.3,1,0.2,1.5
	c-0.1,0.5-0.4,0.9-0.9,1.2l-0.9,0.5C254,67.1,253.5,67.2,253,67z M253.2,66.3c0.3,0.1,0.6,0,0.9-0.1l0.9-0.5
	c0.3-0.2,0.5-0.4,0.5-0.7s0.1-0.6-0.1-0.9c-0.2-0.3-0.4-0.4-0.7-0.5c-0.3-0.1-0.6,0-0.9,0.1l-0.9,0.5c-0.3,0.1-0.4,0.4-0.5,0.7
	c-0.1,0.3-0.1,0.6,0.1,0.9S252.9,66.2,253.2,66.3z M249.3,61.7c-0.2-0.4-0.3-0.9-0.1-1.4c0.2-0.5,0.5-0.9,0.9-1.1l0.9-0.5
	c0.4-0.3,0.9-0.3,1.4-0.2c0.5,0.1,0.9,0.4,1.1,0.8c0.1,0.3,0.2,0.5,0.2,0.8c0,0.3-0.1,0.5-0.2,0.7l2.3-1.3c0.1,0,0.1,0,0.2,0
	c0.1,0,0.2,0.1,0.2,0.2c0.1,0.1,0.1,0.2,0.1,0.3c0,0.1-0.1,0.2-0.1,0.2l-5.6,3.2c-0.1,0-0.2,0-0.2,0c-0.1,0-0.2-0.1-0.2-0.2
	c-0.1-0.1-0.1-0.2-0.1-0.3c0-0.1,0.1-0.2,0.1-0.2l0.4-0.2c-0.2,0-0.5-0.1-0.7-0.2C249.6,62.2,249.4,62,249.3,61.7z M250,61.5
	c0.1,0.3,0.4,0.4,0.7,0.5c0.3,0.1,0.6,0,0.9-0.1l1.1-0.6c0.1-0.1,0.3-0.3,0.3-0.6c0.1-0.3,0-0.6-0.1-0.8c-0.2-0.3-0.4-0.4-0.7-0.5
	c-0.3-0.1-0.6,0-0.9,0.1l-0.9,0.5c-0.3,0.1-0.4,0.4-0.5,0.7C249.8,60.9,249.8,61.2,250,61.5z M231.9,39.6c0.3,0,0.7,0.1,1,0.3
	c0.2,0.2,0.4,0.3,0.5,0.5c0.1,0.2,0.2,0.4,0.2,0.5c0,0.1,0,0.3,0.1,0.4c0,0.1,0.1,0.2,0.1,0.2c0.1,0.1,0.2,0.1,0.3,0
	c0.1,0,0.2-0.1,0.3-0.2c0.1-0.2,0.1-0.5-0.1-1c-0.2-0.4-0.5-0.8-1-1.2c-0.5-0.4-1.1-0.6-1.6-0.5c-0.5,0-1,0.4-1.4,0.9
	c-0.3,0.4-0.4,0.8-0.5,1.2c0,0.4,0.1,0.7,0.2,1.1c0.2,0.3,0.4,0.6,0.6,0.9c0.2,0.3,0.3,0.6,0.4,0.9c0.1,0.3,0,0.6-0.2,0.8
	c-0.2,0.3-0.5,0.4-0.8,0.4c-0.3,0-0.6-0.1-0.9-0.4c-0.3-0.2-0.5-0.4-0.6-0.7c-0.2-0.3-0.2-0.4-0.3-0.4c-0.1-0.1-0.2-0.1-0.3,0
	c-0.1,0-0.2,0.1-0.3,0.2c-0.1,0.2-0.1,0.4,0.2,0.7c0.2,0.3,0.5,0.6,0.9,0.8c0.2,0.2,0.4,0.3,0.7,0.4c0.2,0.1,0.5,0.2,0.7,0.2
	c0.3,0,0.5,0,0.8-0.2c0.3-0.1,0.5-0.3,0.7-0.6c0.3-0.4,0.4-0.7,0.4-1.1c0-0.4-0.1-0.7-0.3-1c-0.2-0.3-0.4-0.6-0.6-0.9
	c-0.2-0.3-0.3-0.6-0.4-0.9c0-0.3,0-0.6,0.3-0.9C231.3,39.8,231.6,39.6,231.9,39.6z M230.6,37.5c0-0.1-0.1-0.2-0.2-0.2
	s-0.2-0.1-0.3-0.1c-0.1,0-0.2,0-0.2,0.1l-0.8,1.1l-1.1,0.1l0.1-2.8c0-0.1,0-0.2-0.1-0.2c-0.1-0.1-0.2-0.1-0.3-0.1
	c-0.1,0-0.2,0.1-0.3,0.1c0,0,0,0.1,0,0.2l-0.1,2.9l-1.8,0.2c-0.1,0-0.1,0-0.2,0.1c-0.1,0.1-0.1,0.2,0,0.3s0.1,0.2,0.2,0.3
	c0,0,0.1,0.1,0.2,0l3.1-0.3l-2.8,3.8c-0.1,0.1-0.1,0.1,0,0.2c0,0.1,0.1,0.2,0.2,0.2c0.1,0.1,0.2,0.1,0.3,0.1c0.1,0,0.2,0,0.2-0.1
	l4.1-5.7C230.6,37.7,230.6,37.6,230.6,37.5z M224.2,38c-0.5,0.1-1-0.1-1.5-0.4c-0.4-0.3-0.7-0.7-0.8-1.2c-0.1-0.5,0-1,0.3-1.4
	c0.1-0.2,0.2-0.3,0.3-0.3c0.1-0.1,0.2-0.1,0.3-0.1c0.1,0,0.2,0,0.3,0.1c0.1,0,0.2,0.1,0.3,0.2l1.8,1.3l0.2-0.2
	c0.2-0.3,0.3-0.6,0.2-0.9c-0.1-0.3-0.3-0.6-0.6-0.9c-0.2-0.1-0.4-0.2-0.5-0.3c-0.2,0-0.3-0.1-0.4-0.1c-0.1,0-0.2,0-0.2-0.1
	c-0.1-0.1-0.1-0.1-0.1-0.2c0-0.1,0-0.2,0.1-0.3c0.1-0.1,0.3-0.2,0.6-0.1c0.3,0,0.7,0.2,1.1,0.5c0.5,0.4,0.9,0.8,1,1.4
	c0.1,0.5,0,1-0.3,1.5l-0.6,0.8C225.2,37.7,224.8,38,224.2,38z M224.9,36.6l-1.5-1.1c-0.1-0.1-0.2-0.2-0.3-0.2
	c-0.1,0-0.1,0.1-0.2,0.2c-0.2,0.2-0.2,0.5-0.2,0.8c0,0.3,0.2,0.6,0.5,0.8c0.3,0.2,0.5,0.3,0.8,0.2c0.3,0,0.6-0.2,0.7-0.4L224.9,36.6
	z M222,31.1l-0.2-0.2c-0.1-0.1-0.2-0.1-0.3-0.1c-0.1,0-0.2,0.1-0.2,0.2c-0.1,0.1-0.1,0.2-0.1,0.3c0,0.1,0.1,0.2,0.1,0.2l0.2,0.2
	c0.2,0.2,0.4,0.4,0.4,0.5c0,0.2,0,0.4-0.2,0.6l-1.5,2.1l-1-0.7c-0.1,0-0.1-0.1-0.2,0c-0.1,0-0.1,0.1-0.2,0.1
	c-0.1,0.1-0.1,0.1-0.1,0.2c0,0.1,0,0.1,0.1,0.2l1,0.7l-1.1,1.6c0,0.1-0.1,0.1,0,0.2c0,0.1,0.1,0.2,0.2,0.2c0.1,0.1,0.2,0.1,0.3,0.1
	c0.1,0,0.2,0,0.2-0.1l3-4.2C223,32.5,222.9,31.8,222,31.1z M219.3,32.8l0.6-0.8c0.3-0.5,0.5-0.9,0.4-1.4s-0.4-0.9-0.9-1.3
	c-0.3-0.3-0.7-0.4-1-0.4c-0.3,0-0.5,0-0.6,0.1c-0.1,0.1-0.1,0.2-0.1,0.3c0,0.1,0.1,0.2,0.1,0.3c0,0,0.2,0,0.4,0.1
	c0.2,0,0.5,0.1,0.7,0.3c0.7,0.5,0.8,1,0.3,1.7l-0.6,0.8c-0.2,0.3-0.5,0.5-0.8,0.5s-0.6-0.1-0.9-0.3c-0.2-0.2-0.4-0.3-0.5-0.6
	c-0.1-0.2-0.2-0.3-0.2-0.3c-0.1-0.1-0.2-0.1-0.3,0c-0.1,0-0.2,0.1-0.2,0.2c-0.1,0.1-0.1,0.3,0.1,0.6c0.1,0.3,0.4,0.5,0.7,0.8
	c0.5,0.4,1,0.5,1.5,0.4C218.6,33.5,219,33.2,219.3,32.8z M217.3,27.9c0-0.1-0.1-0.2-0.2-0.2c-0.1-0.1-0.2-0.1-0.3-0.1
	c-0.1,0-0.2,0-0.2,0.1l-1.5,2.1c-0.2,0.3-0.5,0.4-0.8,0.5c-0.3,0-0.6,0-0.8-0.2c-0.2-0.2-0.4-0.4-0.4-0.8c0-0.3,0-0.6,0.2-0.9
	l1.5-2.1c0.1-0.1,0.1-0.2,0-0.3c0-0.1-0.1-0.2-0.2-0.2c-0.1-0.1-0.2-0.1-0.3-0.1c-0.1,0-0.2,0-0.2,0.1l-1.5,2.1
	c-0.3,0.4-0.4,0.9-0.4,1.4c0.1,0.5,0.3,0.9,0.7,1.2c0.2,0.2,0.5,0.3,0.8,0.3c0.3,0,0.5,0,0.7-0.1l-1.9,2.6c-0.1,0.1-0.1,0.1,0,0.2
	c0,0.1,0.1,0.2,0.2,0.2s0.2,0.1,0.3,0.1c0.1,0,0.2,0,0.2-0.1l4.1-5.7C217.3,28.1,217.3,28,217.3,27.9z M188.1,20.6
	c0.1,0.1,0.2,0.1,0.3,0.1c0.1,0,0.2,0,0.3,0c0.1,0,0.1-0.1,0.2-0.2l1.4-6.6c0-0.1,0-0.2-0.1-0.2c-0.1-0.1-0.2-0.1-0.3-0.1
	c-0.1,0-0.2,0-0.3,0c-0.1,0-0.1,0.1-0.2,0.2l-1.4,6.6C188,20.4,188,20.5,188.1,20.6z M188,13.2c-0.1-0.1-0.2-0.1-0.3-0.1
	c-0.1,0-0.2,0-0.3,0c-0.1,0-0.1,0.1-0.2,0.2l-1.5,6.9c0,0.1,0,0.2,0.1,0.2c0.1,0.1,0.2,0.1,0.3,0.1c0.1,0,0.2,0,0.3,0
	c0.1,0,0.1-0.1,0.2-0.2l1.5-6.9C188.1,13.4,188.1,13.3,188,13.2z M185.8,12.8c-0.1-0.1-0.2-0.1-0.3-0.1c-0.1,0-0.2,0-0.3,0
	c-0.1,0-0.1,0.1-0.2,0.2l-1.5,6.9c0,0.1,0,0.2,0.1,0.2c0.1,0.1,0.2,0.1,0.3,0.1c0.1,0,0.2,0,0.3,0s0.1-0.1,0.2-0.2l1.5-6.9
	C185.9,12.9,185.9,12.9,185.8,12.8z M182,11.8c-0.5-0.1-1,0-1.5,0.3c-0.5,0.3-0.7,0.7-0.9,1.2l-0.5,2.6c0,0.1,0,0.2,0.1,0.2
	c0.1,0.1,0.2,0.1,0.3,0.1c0.1,0,0.2,0,0.3,0c0.1,0,0.1-0.1,0.2-0.2l0.5-2.5c0.1-0.3,0.2-0.5,0.5-0.7c0.3-0.2,0.6-0.2,0.9-0.2
	c0.3,0.1,0.5,0.2,0.7,0.5c0.2,0.3,0.2,0.6,0.2,0.9l-0.5,2.5c0,0.1,0,0.1,0.1,0.2s0.2,0.1,0.3,0.2c0.1,0,0.2,0,0.3,0
	c0.1,0,0.1-0.1,0.2-0.2l0.5-2.5c0.1-0.5,0-1-0.3-1.4C183,12.2,182.6,11.9,182,11.8z M178.8,11.4c-0.3-0.2-0.6-0.4-1.1-0.5
	c-0.5-0.1-0.9-0.1-1.3,0.1s-0.5,0.5-0.6,0.9c-0.1,0.3,0,0.6,0.1,0.9c0.1,0.2,0.3,0.4,0.5,0.6s0.4,0.3,0.7,0.4
	c0.2,0.1,0.4,0.2,0.5,0.4c0.1,0.1,0.2,0.3,0.2,0.5c0,0.2-0.1,0.3-0.3,0.4c-0.2,0.1-0.4,0.1-0.7,0.1c-0.2,0-0.4-0.1-0.6-0.3
	s-0.3-0.2-0.3-0.2c-0.1,0-0.2,0-0.3,0.1c-0.1,0.1-0.1,0.2-0.1,0.2c0,0.1,0.1,0.3,0.4,0.4c0.3,0.2,0.6,0.3,0.9,0.4
	c0.5,0.1,1,0.1,1.3-0.1c0.3-0.2,0.5-0.5,0.6-0.9c0.1-0.3,0-0.6-0.1-0.8c-0.1-0.2-0.3-0.4-0.5-0.5c-0.2-0.1-0.4-0.3-0.7-0.4
	c-0.2-0.1-0.4-0.3-0.5-0.4c-0.1-0.2-0.2-0.4-0.1-0.6c0-0.2,0.1-0.3,0.3-0.4c0.2-0.1,0.4-0.1,0.7,0c0.2,0.1,0.5,0.1,0.6,0.3
	c0.2,0.1,0.3,0.2,0.4,0.3c0.1,0.1,0.1,0.2,0.2,0.2c0.1,0,0.2,0,0.2-0.1c0.1-0.1,0.1-0.1,0.1-0.2C179.2,11.8,179,11.6,178.8,11.4z
	 M173.6,10.1l-0.3-0.1c-0.1,0-0.2,0-0.3,0.1c-0.1,0.1-0.1,0.1-0.2,0.2c0,0.1,0,0.2,0,0.3c0,0.1,0.1,0.1,0.2,0.2l0.3,0.1
	c0.3,0.1,0.5,0.2,0.6,0.3c0.1,0.1,0.1,0.3,0.1,0.6l-0.5,2.5l-1.2-0.3c-0.1,0-0.1,0-0.2,0.1s-0.1,0.1-0.1,0.2c0,0.1,0,0.2,0,0.2
	c0,0.1,0.1,0.1,0.2,0.1l1.2,0.3l-0.4,1.9c0,0.1,0,0.2,0.1,0.2c0.1,0.1,0.2,0.1,0.3,0.1c0.1,0,0.2,0,0.3,0c0.1,0,0.2-0.1,0.2-0.2
	l1.1-5C175.1,10.9,174.6,10.3,173.6,10.1z M172,9.8c-0.1-0.1-0.2-0.1-0.3-0.1c-0.1,0-0.2,0-0.3,0c-0.1,0-0.1,0.1-0.2,0.2l-0.5,2.2
	c-0.1,0.4-0.3,0.7-0.6,1c-0.3,0.2-0.6,0.3-1,0.2l-0.3-0.1c-0.1,0-0.2,0-0.2,0.1c-0.1,0.1-0.1,0.1-0.1,0.2c0,0.1,0,0.2,0,0.3
	c0,0.1,0.1,0.1,0.2,0.2l0.3,0.1c0.3,0.1,0.6,0,0.8-0.1c0.3-0.1,0.5-0.3,0.6-0.5l-0.1,0.5c0,0.1,0,0.2,0.1,0.2s0.1,0.1,0.2,0.1
	c0.1,0,0.2,0,0.3,0c0.1,0,0.1-0.1,0.2-0.2l0.9-4.1C172.1,10,172.1,9.9,172,9.8z M165.7,11.3c-0.1,0.3,0,0.6,0.1,0.9
	c0.1,0.3,0.4,0.5,0.7,0.5c0.3,0.1,0.5,0.1,0.8,0c0.2-0.1,0.4-0.1,0.4-0.1c0.1,0,0.2,0.1,0.2,0.2c0,0.1,0,0.2,0,0.3
	c0,0.1-0.2,0.2-0.5,0.3c-0.3,0.1-0.6,0-1,0c-0.6-0.1-1.1-0.4-1.3-0.8c-0.2-0.4-0.3-0.9-0.2-1.5l0.5-2.5c0-0.1,0.1-0.1,0.2-0.2
	c0.1,0,0.2,0,0.3,0c0.1,0,0.2,0.1,0.2,0.1c0.1,0.1,0.1,0.1,0.1,0.2l-0.1,0.4c0.5-0.4,1.1-0.5,1.6-0.4c0.4,0.1,0.7,0.3,0.9,0.5
	s0.3,0.6,0.2,1c-0.1,0.5-0.4,0.8-0.8,0.9c-0.4,0.1-1,0.1-1.8-0.1l-0.5-0.1L165.7,11.3z M165.9,10.6l0.3,0.1c0.2,0,0.4,0.1,0.5,0.1
	c0.1,0,0.3,0,0.4,0c0.2,0,0.3,0,0.4-0.1c0.1,0,0.2-0.1,0.3-0.2c0.1-0.1,0.1-0.2,0.2-0.3c0.1-0.2,0-0.4-0.1-0.6s-0.3-0.3-0.5-0.3
	c-0.3-0.1-0.6,0-0.9,0.2c-0.3,0.2-0.5,0.4-0.5,0.6L165.9,10.6z M162.8,7.8l-0.3-0.1c-0.1,0-0.2,0-0.3,0.1c-0.1,0.1-0.1,0.1-0.2,0.2
	c0,0.1,0,0.2,0,0.3c0,0.1,0.1,0.1,0.2,0.2l0.3,0.1c0.3,0.1,0.5,0.2,0.6,0.3c0.1,0.1,0.1,0.3,0.1,0.6l-0.5,2.5l-1.2-0.3
	c-0.1,0-0.1,0-0.2,0.1c-0.1,0.1-0.1,0.1-0.1,0.2c0,0.1,0,0.2,0,0.2c0,0.1,0.1,0.1,0.2,0.1l1.2,0.3l-0.4,1.9c0,0.1,0,0.2,0.1,0.2
	c0.1,0.1,0.2,0.1,0.3,0.1c0.1,0,0.2,0,0.3,0c0.1,0,0.2-0.1,0.2-0.2l1.1-5C164.3,8.6,163.9,8,162.8,7.8z M160.1,11.6
	c-0.5,0.3-1,0.4-1.5,0.3c-0.5-0.1-0.9-0.4-1.2-0.8c-0.3-0.5-0.4-0.9-0.3-1.4l0.2-1c0.1-0.5,0.4-0.9,0.9-1.2c0.5-0.3,1-0.4,1.5-0.3
	c0.5,0.1,0.9,0.4,1.2,0.9c0.3,0.5,0.4,0.9,0.3,1.4l-0.2,1C160.9,10.9,160.6,11.3,160.1,11.6z M160.2,10.2l0.2-1
	c0.1-0.3,0-0.6-0.2-0.9c-0.2-0.3-0.4-0.5-0.7-0.5c-0.3-0.1-0.6,0-0.9,0.2c-0.3,0.2-0.4,0.4-0.5,0.7l-0.2,1c-0.1,0.3,0,0.6,0.2,0.9
	c0.2,0.3,0.4,0.5,0.7,0.5c0.3,0.1,0.6,0,0.9-0.2C160,10.7,160.1,10.5,160.2,10.2z M155.1,10.7c0,0.1,0,0.2,0.1,0.2s0.1,0.1,0.2,0.1
	c0.1,0,0.2,0,0.3,0c0.1,0,0.1-0.1,0.2-0.2l0.9-4.1c0-0.1,0-0.2-0.1-0.2c-0.1-0.1-0.2-0.1-0.3-0.1c-0.1,0-0.2,0-0.3,0
	c-0.1,0-0.1,0.1-0.2,0.2l-0.5,2.2c-0.1,0.4-0.3,0.7-0.6,1c-0.3,0.2-0.6,0.3-1,0.2l-0.3-0.1c-0.1,0-0.2,0-0.2,0.1
	c-0.1,0.1-0.1,0.1-0.1,0.2c0,0.1,0,0.2,0,0.3c0,0.1,0.1,0.1,0.2,0.2l0.3,0.1c0.3,0.1,0.6,0,0.8-0.1c0.3-0.1,0.5-0.3,0.6-0.5
	L155.1,10.7z M124.3,50l1.7,7.8c0,0.1-0.1,0.3-0.2,0.3c0,0,0,0-0.1,0c-0.1,0-0.2-0.1-0.2-0.2l-1.7-7.8l-1.7-7.8l-1.7-7.8l-1.7-7.8
	c0-0.1,0.1-0.3,0.2-0.3c0.1,0,0.3,0.1,0.3,0.2l1.7,7.8l1.7,7.8L124.3,50z M87.8,66.1l-4.7-6.5l-4.7-6.5l-4.7-6.5
	c-0.1-0.1-0.2-0.1-0.3-0.1c-0.1,0.1-0.1,0.2-0.1,0.3l4.7,6.5l4.7,6.5l4.7,6.5l4.7,6.5c0,0.1,0.1,0.1,0.2,0.1c0.1,0,0.1,0,0.1,0
	c0.1-0.1,0.1-0.2,0.1-0.3L87.8,66.1z M46.9,88.1l6.9,4l6.9,4l6.9,4l6.9,4c0,0,0.1,0,0.1,0c0.1,0,0.2,0,0.2-0.1
	c0.1-0.1,0-0.3-0.1-0.3l-6.9-4l-6.9-4l-6.9-4l-6.9-4l-6.9-4c-0.1-0.1-0.3,0-0.3,0.1c-0.1,0.1,0,0.3,0.1,0.3L46.9,88.1z M80.4,137
	l-8-0.8l-8-0.8l-8-0.8l-8-0.8l-8-0.8l-8-0.8l-8-0.8c-0.1,0-0.3,0.1-0.3,0.2c0,0.1,0.1,0.3,0.2,0.3l8,0.8l8,0.8l8,0.8l8,0.8l8,0.8
	l8,0.8l8,0.8c0,0,0,0,0,0c0.1,0,0.2-0.1,0.2-0.2C80.6,137.1,80.5,137,80.4,137z M75.4,165.9l-7.6,2.5l-7.6,2.5l-7.6,2.5l-7.6,2.5
	l-7.6,2.5l-7.6,2.5c-0.1,0-0.2,0.2-0.2,0.3c0,0.1,0.1,0.2,0.2,0.2c0,0,0.1,0,0.1,0l7.6-2.5l7.6-2.5l7.6-2.5l7.6-2.5l7.6-2.5l7.6-2.5
	c0.1,0,0.2-0.2,0.2-0.3C75.7,166,75.6,165.9,75.4,165.9z M60.6,218.7l-5.9,5.4c-0.1,0.1-0.1,0.2,0,0.4c0,0.1,0.1,0.1,0.2,0.1
	c0.1,0,0.1,0,0.2-0.1l5.9-5.4c0.1-0.1,0.1-0.2,0-0.4S60.7,218.6,60.6,218.7z M104.7,231.5l-3.3,7.3l-3.3,7.3l-3.3,7.3
	c-0.1,0.1,0,0.3,0.1,0.3c0,0,0.1,0,0.1,0c0.1,0,0.2-0.1,0.2-0.1l3.3-7.3l3.3-7.3l3.3-7.3c0.1-0.1,0-0.3-0.1-0.3
	C104.9,231.3,104.8,231.4,104.7,231.5z M144,255.7c-0.1,0-0.2,0.1-0.2,0.2v8c0,0.1,0.1,0.2,0.2,0.2s0.2-0.1,0.2-0.2v-8
	C144.2,255.8,144.1,255.7,144,255.7z M189.8,246.2c-0.1-0.1-0.2-0.2-0.3-0.1c-0.1,0.1-0.2,0.2-0.1,0.3l3.3,7.3
	c0,0.1,0.1,0.1,0.2,0.1c0,0,0.1,0,0.1,0c0.1-0.1,0.2-0.2,0.1-0.3L189.8,246.2z M227.4,218.7l-5.9-5.4c0,0,0,0,0,0l-5.9-5.4
	c-0.1-0.1-0.3-0.1-0.4,0c-0.1,0.1-0.1,0.3,0,0.4l5.9,5.4l5.9,5.4l5.9,5.4c0,0,0.1,0.1,0.2,0.1c0.1,0,0.1,0,0.2-0.1
	c0.1-0.1,0.1-0.3,0-0.4L227.4,218.7z M258.2,180.8l-7.6-2.5c-0.1,0-0.3,0-0.3,0.2c0,0.1,0,0.3,0.2,0.3l7.6,2.5c0,0,0.1,0,0.1,0
	c0.1,0,0.2-0.1,0.2-0.2C258.4,181,258.3,180.8,258.2,180.8z M263.3,131.1l-8,0.8l0,0l0,0l-8,0.8c-0.1,0-0.2,0.1-0.2,0.3
	c0,0.1,0.1,0.2,0.2,0.2c0,0,0,0,0,0l8-0.8c0,0,0,0,0,0l8-0.8c0.1,0,0.2-0.1,0.2-0.3C263.6,131.2,263.5,131.1,263.3,131.1z
	 M248.2,83.8c-0.1-0.1-0.2-0.2-0.3-0.1l-6.9,4c-0.1,0.1-0.2,0.2-0.1,0.3c0,0.1,0.1,0.1,0.2,0.1c0,0,0.1,0,0.1,0l6.9-4
	C248.2,84.1,248.2,83.9,248.2,83.8z M214.3,46.7l-4.7,6.5l-4.7,6.5c-0.1,0.1-0.1,0.3,0.1,0.3c0,0,0.1,0,0.1,0c0.1,0,0.2,0,0.2-0.1
	l4.7-6.5l4.7-6.5c0.1-0.1,0.1-0.3-0.1-0.3C214.6,46.6,214.4,46.6,214.3,46.7z"/>
</svg>
