<?xml version="1.0" encoding="utf-8"?>
<!-- Generator: Adobe Illustrator 19.0.0, SVG Export Plug-In . SVG Version: 6.00 Build 0)  -->
<svg version="1.1" id="Layer_1" xmlns="http://www.w3.org/2000/svg" xmlns:xlink="http://www.w3.org/1999/xlink" x="0px" y="0px"
	 viewBox="0 0 154.5 130.3" enable-background="new 0 0 154.5 130.3" xml:space="preserve">
<path d="M96.6,99.5c-0.1,0-0.2,0.1-0.3,0.1c0.5,0.5,1,1,1.5,1.6c3.4,3.5,7.4,6.6,11.7,9.2c8.6,5.2,18.2,8.8,28.1,11.5
	c0.4,0.1,0.6,0.5,0.5,0.9c-0.1,0.4-0.5,0.6-0.8,0.5c-10.1-1.9-20.2-4.8-29.5-9.7c-4.7-2.4-9.1-5.4-13.2-8.9c-1.4-1.2-2.8-2.6-4-4
	c-7,0.9-13.5,0.6-19-0.3c-2.8-0.4-5.4-1-7.7-1.6c-2.3-0.6-4.5-1.3-6.3-2c-3.8-1.4-6.6-2.7-8.5-3.6c-1.9-1-2.9-1.6-2.9-1.6l0,0
	c-0.2-0.1-0.3-0.4-0.2-0.7c0.1-0.2,0.4-0.3,0.6-0.2c0,0,1,0.4,3,1.1c2,0.6,4.9,1.5,8.7,2.3c1.9,0.4,4,0.7,6.3,1
	c2.3,0.3,4.8,0.5,7.4,0.6c4.3,0.1,9-0.1,13.9-1c-0.5-0.8-1.1-1.7-1.6-2.5c-2.8-4.7-4.7-10-5.7-15.4c-1-5.4-1.2-10.9-0.8-16.4
	c0.2-2.8,0.6-5.5,1.2-8.2l-68,71.1c-0.5,0.5-1.3,0.5-1.8,0c-0.5-0.5-0.5-1.3-0.1-1.8l78.5-93.3c1.8-2.2,5.1-2.5,7.3-0.6
	c1.8,1.5,2.3,4,1.4,6.1l-0.2,0.4l0,0c-2.4,4.3-4.5,8.7-6.3,13.3c-1.7,4.5-3.1,9.2-3.8,14c-0.8,4.7-1,9.6-0.4,14.3
	c0.5,4.7,1.9,9.4,4,13.7c0.7,1.4,1.4,2.7,2.2,4c0.8-0.2,1.6-0.5,2.4-0.7c0.8-0.3,1.6-0.5,2.4-0.8c0.9-0.3,1.6-0.6,2.4-0.9
	c3.2-1.2,6.5-2.7,9.6-4.5c3.1-1.8,6.2-3.9,9.1-6.3c2.8-2.5,5.5-5.2,7.8-8.3c2.3-3.1,4.1-6.5,5.5-10.1c1.3-3.6,2-7.4,2-11.3
	c0-1-0.1-1.9-0.2-2.8l0-0.4c0,0,0,0,0,0l0,0l0-0.2l-0.1-0.8c-0.1-0.5-0.1-1.2-0.2-1.6c-0.3-1.7-0.9-3.7-1.5-5.4
	c-0.7-1.8-1.5-3.5-2.6-5.1c-1.1-1.6-2.2-3.1-3.6-4.5c-5.4-5.5-13.1-9-21.1-10.7c-4-0.8-8.1-1.2-12.1-1.2c-1,0-2,0-3,0.1l-0.7,0
	l-0.3,0l-0.4,0L85.1,18c-1.9,0.2-3.9,0.5-5.9,0.8c-7.8,1.5-15,4.4-21,8.4c-6.1,4-11,9-14.6,14.3c-3.6,5.3-5.9,10.8-7.1,15.9
	c-1.3,5.1-1.4,9.7-1.1,13.5c0.4,3.8,1.2,6.7,1.9,8.6c0.4,1,0.7,1.7,0.9,2.2c0.2,0.5,0.3,0.7,0.3,0.7l0,0c0.1,0.3,0,0.7-0.3,0.8
	c-0.3,0.1-0.6,0-0.8-0.2c0,0-0.2-0.2-0.5-0.7c-0.3-0.5-0.8-1.2-1.3-2.1c-1-1.9-2.3-4.9-3.1-8.9c-0.8-4-1-9-0.1-14.7
	c0.9-5.6,3-11.8,6.6-17.9c3.6-6.1,8.7-12,15.2-16.9c6.5-4.9,14.5-8.6,23.2-10.7c2.2-0.5,4.3-1,6.7-1.3l1.6-0.2l0.4-0.1l0.5,0
	l0.9-0.1c1.2-0.1,2.3-0.2,3.5-0.2c4.6-0.2,9.3,0.2,14,0.9c4.7,0.8,9.3,2.1,13.8,4.2c2.3,1,4.4,2.2,6.5,3.6c2.1,1.4,4.1,3,5.9,4.8
	c1.8,1.8,3.5,3.8,4.9,6c1.4,2.2,2.5,4.5,3.5,6.9c0.9,2.4,1.5,4.8,2,7.5c0.1,0.7,0.2,1.1,0.2,1.7l0.1,0.8l0,0.2l0,0.1
	c0,0.3,0,0.2,0,0.3l0,0.5c0.1,1.3,0.1,2.5,0.1,3.8c-0.1,5-1.2,9.9-3,14.4c-1.8,4.5-4.2,8.6-7,12.2c-5.6,7.2-12.7,12.6-20,16.4
	c-3.6,1.9-7.3,3.4-10.9,4.6c-0.9,0.3-1.9,0.6-2.7,0.9c-0.4,0.1-0.9,0.2-1.3,0.4L96.6,99.5z"/>
</svg>
